<svg width="375" height="405" viewBox="0 0 375 405" fill="none" xmlns="http://www.w3.org/2000/svg">
<rect opacity="0.75" width="375" height="405" fill="black" fill-opacity="0.5"/>
<g opacity="0.15">
<path d="M298.527 374H314.473C316.974 374 319 372.657 319 371C319 369.343 316.974 368 314.473 368H298.527C296.026 368 294 369.343 294 371C294 372.657 296.026 374 298.527 374Z" fill="#D7B894"/>
<path d="M262.812 266.629C261.141 266.629 259.787 267.984 259.787 269.655V272.322C259.787 273.993 261.141 275.348 262.812 275.348C264.484 275.348 265.838 273.993 265.838 272.322V269.655C265.838 267.984 264.484 266.629 262.812 266.629Z" fill="#D7B894"/>
<path d="M297.925 275.348C299.596 275.348 300.951 273.993 300.951 272.322V269.655C300.951 267.984 299.596 266.629 297.925 266.629C296.254 266.629 294.899 267.984 294.899 269.655V272.322C294.9 273.993 296.254 275.348 297.925 275.348Z" fill="#D7B894"/>
<path d="M353.544 343.474C347.729 334.517 340 327.394 330.72 322.345C330.504 322.189 330.268 322.062 330.015 321.967C324.673 319.145 318.822 317.01 312.542 315.589L307.605 308.827C316.561 301.337 323.492 291.216 326.25 281.231C329.119 280.656 332.029 279.079 334.381 276.755C337.247 273.923 338.891 270.372 338.891 267.012V262.246C338.891 258.094 335.507 254.716 331.347 254.716H327.55V248.403C327.55 248.387 327.55 248.372 327.55 248.357C327.367 236.356 323.484 225.4 316.32 216.671C310.026 209.002 301.2 203.148 291.467 200.187C283.29 197.7 275.008 197.326 267.516 199.107C259.812 200.94 253.5 204.951 249.201 210.736C241.626 213.67 236.505 218.737 233.971 225.809C231.822 231.806 231.967 237.886 232.073 242.325C232.092 243.13 232.11 243.89 232.11 244.545V254.716H228.415C224.255 254.716 220.871 258.094 220.871 262.246V266.705C220.871 270.119 222.522 273.709 225.401 276.553C227.724 278.848 230.51 280.368 233.315 280.927C236.082 291.367 243.398 301.966 252.832 309.588L248.447 315.589C242.171 317.01 236.326 319.142 230.99 321.961C230.725 322.059 230.477 322.193 230.254 322.356C220.72 327.55 212.825 334.937 206.953 344.26C206.062 345.674 206.486 347.542 207.901 348.433C209.315 349.323 211.183 348.899 212.074 347.485C216.577 340.336 222.24 334.523 229.011 330.081V368.638H211.874C208.791 368.638 206.283 371.14 206.283 374.217V374.966C206.283 383.159 209.501 391.179 214.758 396.947C203.425 396.911 201.265 393.56 201.265 387.402C201.265 378.335 202.748 369.257 205.553 361.148C205.692 360.764 205.831 360.381 205.959 360.009C206.504 358.429 205.664 356.707 204.084 356.163C202.504 355.618 200.782 356.459 200.238 358.038C200.118 358.385 199.989 358.742 199.858 359.1C199.852 359.115 199.847 359.131 199.842 359.146C196.814 367.89 195.214 377.66 195.214 387.403C195.214 393.155 197.131 397.359 200.913 399.898C204.065 402.014 208.522 403 214.939 403H223.374H232.036H249.087H328.952H346.06C352.473 403 356.928 402.014 360.081 399.898C363.866 397.358 365.785 393.153 365.785 387.402C365.785 371.232 361.438 355.632 353.544 343.474V343.474ZM327.55 272.174V260.767H331.347C332.156 260.767 332.84 261.444 332.84 262.246V267.011C332.84 268.739 331.826 270.772 330.128 272.45C329.313 273.256 328.399 273.926 327.462 274.425C327.519 273.67 327.55 272.919 327.55 272.174V272.174ZM229.654 272.248C227.943 270.558 226.922 268.486 226.922 266.705V262.246C226.922 261.444 227.606 260.767 228.415 260.767H232.11V272.174C232.11 272.821 232.134 273.473 232.176 274.129C231.289 273.648 230.426 273.011 229.654 272.248V272.248ZM307.503 318.951C306.458 322.561 303.574 325.904 299.248 328.466C294.128 331.498 287.462 333.167 280.477 333.167C267.259 333.167 255.987 327.126 253.502 318.929L257.727 313.145C260.864 315.18 264.164 316.88 267.56 318.14C271.936 319.766 275.83 320.579 279.726 320.579C283.639 320.579 287.554 319.758 291.956 318.116C295.708 316.717 299.344 314.789 302.772 312.469L307.503 318.951ZM252.135 216.1C252.731 215.888 253.246 215.494 253.607 214.973C260.444 205.104 274.951 201.488 289.705 205.976C304.828 210.577 321.119 224.145 321.498 248.427V254.716H309.754C302.172 254.716 294.394 250.797 286.159 246.649C277.78 242.427 268.84 237.924 259.759 237.924C252.579 237.924 245.31 240.741 238.16 248.739V244.545C238.16 243.819 238.141 243.023 238.121 242.182C237.924 233.854 237.624 221.269 252.135 216.1V216.1ZM238.749 277.625C238.739 277.567 238.728 277.508 238.715 277.451C238.358 275.662 238.161 273.895 238.161 272.174V258.655C252.889 236.668 267.058 243.802 283.437 252.053C291.941 256.337 300.734 260.767 309.754 260.767H321.498V272.174C321.498 273.936 321.29 275.749 320.911 277.585C320.86 277.755 320.822 277.931 320.802 278.114C318.569 288.04 311.159 298.591 301.707 305.781C301.691 305.793 301.674 305.802 301.658 305.813C301.636 305.829 301.616 305.848 301.595 305.865C297.921 308.644 293.943 310.916 289.841 312.446C282.387 315.225 277.107 315.231 269.666 312.467C254.84 306.964 241.63 291.629 238.749 277.625ZM235.062 326.621C238.826 324.76 242.872 323.256 247.197 322.113V346.375H235.062V326.621ZM248.287 396.948H232.035H224.175C217.169 392.771 212.333 383.852 212.333 374.966V374.689H260.138C260.14 374.743 260.141 374.805 260.139 374.877C260.138 374.907 260.138 374.936 260.138 374.966C260.138 383.854 255.299 392.773 248.287 396.948ZM325.926 396.948H257.708C258.755 395.801 259.72 394.563 260.596 393.253H268.159C274.469 393.253 277.874 388.006 277.874 383.068C277.874 378.091 274.537 373.052 268.159 373.052H265.995C265.69 371.776 265.082 370.902 264.538 370.342C263.783 369.564 262.421 368.638 260.224 368.638H235.061V352.427H273.586C275.257 352.427 276.611 351.073 276.611 349.402C276.611 347.73 275.257 346.376 273.586 346.376H253.248V329.524C259.331 335.472 269.243 339.219 280.477 339.219C288.531 339.219 296.292 337.249 302.33 333.673C304.383 332.458 306.191 331.081 307.739 329.579V346.375H288.514C286.843 346.375 285.488 347.729 285.488 349.4C285.488 351.072 286.843 352.426 288.514 352.426H325.926V396.948ZM263.788 387.201C264.825 384.622 265.552 381.894 265.916 379.103H268.159C271.646 379.103 271.822 382.406 271.822 383.068C271.822 383.491 271.719 387.201 268.159 387.201H263.788ZM325.926 346.375H313.791V322.115C318.197 323.284 322.235 324.815 325.926 326.653V346.375ZM346.06 396.948H331.978V349.401V330.132C352.063 343.362 359.734 366.732 359.734 387.402C359.734 393.593 357.554 396.948 346.06 396.948Z" fill="#D7B894"/>
</g>
</svg>
