<svg width="375" height="405" viewBox="0 0 375 405" fill="none" xmlns="http://www.w3.org/2000/svg">
<rect opacity="0.75" width="375" height="405" fill="black" fill-opacity="0.5"/>
<g opacity="0.15">
<path d="M356.385 345.771L302.341 330.059V325.427H316.232C327.889 325.427 337.372 315.944 337.372 304.287V257.378C337.372 225.74 311.632 200 279.993 200C248.355 200 222.615 225.74 222.615 257.378V304.288C222.615 315.944 232.098 325.427 243.754 325.427H257.646V330.059L203.567 345.781C195.452 348.247 190 355.601 190 364.082V404.75H196.04V364.082C196.04 358.279 199.77 353.247 205.288 351.571L238.319 341.968V377.973H255.308L279.993 405L304.679 377.973H321.668V341.967L354.664 351.56C360.216 353.247 363.947 358.279 363.947 364.082V404.75H369.987V364.082C369.987 355.601 364.534 348.247 356.385 345.771ZM289.94 314.984C289.878 315.003 289.816 315.022 289.755 315.041C289.305 315.18 288.852 315.308 288.394 315.428C288.344 315.441 288.294 315.455 288.243 315.469C287.76 315.592 287.273 315.704 286.782 315.807C286.674 315.829 286.566 315.849 286.457 315.87C286.071 315.947 285.681 316.016 285.29 316.079C285.158 316.1 285.027 316.123 284.895 316.142C284.414 316.213 283.93 316.277 283.444 316.327C283.358 316.336 283.272 316.342 283.186 316.35C282.767 316.39 282.346 316.422 281.923 316.446C281.785 316.454 281.646 316.461 281.507 316.467C281.004 316.49 280.5 316.506 279.993 316.506C279.485 316.506 278.981 316.49 278.478 316.467C278.339 316.461 278.2 316.453 278.062 316.446C277.639 316.421 277.218 316.389 276.799 316.35C276.713 316.341 276.628 316.336 276.542 316.327C276.054 316.277 275.571 316.213 275.091 316.142C274.958 316.122 274.827 316.1 274.695 316.079C274.304 316.016 273.915 315.947 273.528 315.87C273.419 315.849 273.311 315.829 273.203 315.807C272.712 315.704 272.225 315.592 271.742 315.469C271.691 315.456 271.642 315.441 271.591 315.428C271.134 315.308 270.68 315.179 270.231 315.041C270.169 315.022 270.107 315.003 270.045 314.984C256.573 310.746 246.773 298.141 246.773 283.288V262.752C246.773 251.632 255.086 242.417 265.825 240.997C267.465 261.594 284.751 277.852 305.762 277.852H313.211V283.288C313.213 298.141 303.413 310.746 289.94 314.984ZM243.754 319.387C235.428 319.387 228.655 312.614 228.655 304.288V257.378C228.655 229.07 251.685 206.04 279.993 206.04C308.302 206.04 331.332 229.07 331.332 257.378V304.288C331.332 312.614 324.558 319.387 316.232 319.387H302.341V315.546C312.552 308.45 319.252 296.637 319.252 283.288V271.812H305.763C287.002 271.812 271.739 256.549 271.739 237.788V234.768H268.719C253.289 234.768 240.735 247.322 240.735 262.752V283.288C240.735 296.637 247.434 308.45 257.646 315.546V319.387H243.754ZM257.971 371.934H244.359V340.212L258.703 336.042L273.636 389.084L257.971 371.934ZM279.993 389.379L263.685 331.454V319.006C265.184 319.692 266.725 320.277 268.295 320.767C268.312 320.772 268.329 320.777 268.346 320.783C268.593 320.859 268.841 320.932 269.09 321.004C269.176 321.029 269.262 321.055 269.349 321.079C269.554 321.137 269.76 321.193 269.966 321.247C270.098 321.282 270.229 321.316 270.362 321.35C270.537 321.394 270.712 321.436 270.888 321.478C271.053 321.518 271.22 321.556 271.386 321.594C271.538 321.628 271.689 321.661 271.841 321.693C272.032 321.734 272.223 321.772 272.415 321.81C272.55 321.836 272.684 321.863 272.82 321.888C273.029 321.927 273.239 321.963 273.449 321.999C273.572 322.019 273.693 322.04 273.816 322.059C274.039 322.095 274.263 322.128 274.488 322.159C274.601 322.175 274.713 322.192 274.825 322.207C275.059 322.238 275.294 322.265 275.529 322.292C275.635 322.304 275.741 322.317 275.847 322.329C276.086 322.354 276.327 322.376 276.567 322.397C276.67 322.405 276.774 322.416 276.878 322.424C277.121 322.443 277.366 322.459 277.611 322.473C277.712 322.479 277.812 322.488 277.913 322.493C278.169 322.506 278.425 322.515 278.681 322.524C278.772 322.527 278.862 322.532 278.953 322.534C279.298 322.543 279.645 322.548 279.993 322.548C280.341 322.548 280.687 322.543 281.033 322.534C281.124 322.532 281.214 322.527 281.305 322.524C281.561 322.515 281.818 322.506 282.073 322.493C282.174 322.488 282.274 322.479 282.375 322.473C282.62 322.459 282.865 322.444 283.108 322.424C283.212 322.416 283.316 322.406 283.419 322.397C283.659 322.376 283.9 322.354 284.139 322.329C284.246 322.318 284.352 322.305 284.458 322.292C284.692 322.266 284.927 322.238 285.161 322.207C285.273 322.192 285.385 322.176 285.498 322.16C285.723 322.128 285.947 322.096 286.171 322.06C286.293 322.041 286.415 322.019 286.537 321.999C286.748 321.963 286.957 321.927 287.167 321.888C287.302 321.863 287.437 321.837 287.572 321.81C287.763 321.773 287.954 321.734 288.145 321.694C288.297 321.661 288.449 321.628 288.601 321.594C288.767 321.557 288.933 321.519 289.099 321.479C289.274 321.436 289.449 321.394 289.624 321.35C289.757 321.317 289.889 321.282 290.02 321.247C290.227 321.193 290.432 321.138 290.638 321.08C290.724 321.055 290.81 321.03 290.896 321.005C291.145 320.933 291.395 320.86 291.642 320.783C291.657 320.778 291.672 320.773 291.688 320.769C293.259 320.279 294.8 319.693 296.3 319.007V331.454L279.993 389.379ZM315.629 371.934H302.016L286.351 389.084L301.284 336.042L315.629 340.212V371.934Z" fill="#D7B894"/>
</g>
</svg>
