<svg width="420" height="110" viewBox="0 0 420 110" fill="none" xmlns="http://www.w3.org/2000/svg">
<g clip-path="url(#clip0)">
<rect opacity="0.75" width="420" height="110" fill="black" fill-opacity="0.5"/>
<g filter="url(#filter0_d)">
<path d="M22.192 21.6C22.272 21.6 22.312 21.64 22.312 21.72V22.236C22.312 22.316 22.272 22.356 22.192 22.356H19.84C19.808 22.356 19.792 22.372 19.792 22.404V29.88C19.792 29.96 19.752 30 19.672 30H19.06C18.98 30 18.94 29.96 18.94 29.88V22.404C18.94 22.372 18.924 22.356 18.892 22.356H16.636C16.556 22.356 16.516 22.316 16.516 22.236V21.72C16.516 21.64 16.556 21.6 16.636 21.6H22.192ZM25.7643 30.096C25.1883 30.096 24.6923 29.948 24.2763 29.652C23.8603 29.356 23.5723 28.948 23.4123 28.428C23.3003 28.06 23.2443 27.568 23.2443 26.952C23.2443 26.336 23.3003 25.848 23.4123 25.488C23.5643 24.976 23.8483 24.572 24.2643 24.276C24.6803 23.98 25.1843 23.832 25.7763 23.832C26.3443 23.832 26.8323 23.98 27.2403 24.276C27.6563 24.572 27.9403 24.972 28.0923 25.476C28.2043 25.82 28.2603 26.312 28.2603 26.952C28.2603 27.6 28.2043 28.092 28.0923 28.428C27.9403 28.948 27.6563 29.356 27.2403 29.652C26.8323 29.948 26.3403 30.096 25.7643 30.096ZM25.7643 29.352C26.1483 29.352 26.4763 29.248 26.7483 29.04C27.0203 28.824 27.2043 28.536 27.3003 28.176C27.3723 27.888 27.4083 27.484 27.4083 26.964C27.4083 26.436 27.3763 26.032 27.3123 25.752C27.2163 25.392 27.0283 25.108 26.7483 24.9C26.4763 24.684 26.1443 24.576 25.7523 24.576C25.3603 24.576 25.0283 24.684 24.7563 24.9C24.4843 25.108 24.3003 25.392 24.2043 25.752C24.1403 26.032 24.1083 26.436 24.1083 26.964C24.1083 27.492 24.1403 27.896 24.2043 28.176C24.2923 28.536 24.4723 28.824 24.7443 29.04C25.0243 29.248 25.3643 29.352 25.7643 29.352ZM38.0457 25.944C38.0777 26.168 38.0937 26.448 38.0937 26.784V27.168C38.0937 27.248 38.0537 27.288 37.9737 27.288H34.0977C34.0657 27.288 34.0497 27.304 34.0497 27.336C34.0657 27.776 34.0897 28.06 34.1217 28.188C34.2097 28.548 34.3977 28.832 34.6857 29.04C34.9737 29.248 35.3417 29.352 35.7897 29.352C36.1257 29.352 36.4217 29.276 36.6777 29.124C36.9337 28.972 37.1337 28.756 37.2777 28.476C37.3257 28.404 37.3817 28.388 37.4457 28.428L37.9137 28.704C37.9777 28.744 37.9937 28.8 37.9617 28.872C37.7617 29.256 37.4617 29.56 37.0617 29.784C36.6617 30 36.2017 30.108 35.6817 30.108C35.1137 30.1 34.6377 29.964 34.2537 29.7C33.8697 29.436 33.5937 29.068 33.4257 28.596C33.2817 28.212 33.2097 27.66 33.2097 26.94C33.2097 26.604 33.2137 26.332 33.2217 26.124C33.2377 25.908 33.2697 25.716 33.3177 25.548C33.4537 25.028 33.7257 24.612 34.1337 24.3C34.5497 23.988 35.0497 23.832 35.6337 23.832C36.3617 23.832 36.9217 24.016 37.3137 24.384C37.7057 24.752 37.9497 25.272 38.0457 25.944ZM35.6337 24.576C35.2417 24.576 34.9137 24.68 34.6497 24.888C34.3937 25.088 34.2257 25.36 34.1457 25.704C34.0977 25.872 34.0657 26.144 34.0497 26.52C34.0497 26.552 34.0657 26.568 34.0977 26.568H37.2057C37.2377 26.568 37.2537 26.552 37.2537 26.52C37.2377 26.16 37.2137 25.904 37.1817 25.752C37.0937 25.392 36.9137 25.108 36.6417 24.9C36.3777 24.684 36.0417 24.576 35.6337 24.576ZM42.8081 23.844C43.4481 23.844 43.9561 24.032 44.3321 24.408C44.7161 24.784 44.9081 25.288 44.9081 25.92V29.88C44.9081 29.96 44.8681 30 44.7881 30H44.1761C44.0961 30 44.0561 29.96 44.0561 29.88V26.088C44.0561 25.648 43.9201 25.288 43.6481 25.008C43.3841 24.728 43.0401 24.588 42.6161 24.588C42.1761 24.588 41.8201 24.724 41.5481 24.996C41.2761 25.268 41.1401 25.624 41.1401 26.064V29.88C41.1401 29.96 41.1001 30 41.0201 30H40.4081C40.3281 30 40.2881 29.96 40.2881 29.88V24.048C40.2881 23.968 40.3281 23.928 40.4081 23.928H41.0201C41.1001 23.928 41.1401 23.968 41.1401 24.048V24.564C41.1401 24.58 41.1441 24.592 41.1521 24.6C41.1681 24.608 41.1801 24.604 41.1881 24.588C41.5401 24.092 42.0801 23.844 42.8081 23.844ZM49.2489 30.06C48.8009 30.06 48.4009 29.988 48.0489 29.844C47.7049 29.7 47.4369 29.508 47.2449 29.268C47.0609 29.028 46.9689 28.76 46.9689 28.464V28.32C46.9689 28.24 47.0089 28.2 47.0889 28.2H47.6649C47.7449 28.2 47.7849 28.24 47.7849 28.32V28.416C47.7849 28.68 47.9209 28.912 48.1929 29.112C48.4729 29.304 48.8209 29.4 49.2369 29.4C49.6529 29.4 49.9889 29.308 50.2449 29.124C50.5009 28.932 50.6289 28.692 50.6289 28.404C50.6289 28.204 50.5609 28.04 50.4249 27.912C50.2969 27.784 50.1409 27.684 49.9569 27.612C49.7809 27.54 49.5049 27.448 49.1289 27.336C48.6809 27.208 48.3129 27.08 48.0249 26.952C47.7369 26.824 47.4929 26.648 47.2929 26.424C47.1009 26.192 47.0049 25.9 47.0049 25.548C47.0049 25.036 47.2049 24.628 47.6049 24.324C48.0049 24.02 48.5329 23.868 49.1889 23.868C49.6289 23.868 50.0169 23.94 50.3529 24.084C50.6969 24.228 50.9609 24.428 51.1449 24.684C51.3289 24.932 51.4209 25.212 51.4209 25.524V25.56C51.4209 25.64 51.3809 25.68 51.3009 25.68H50.7369C50.6569 25.68 50.6169 25.64 50.6169 25.56V25.524C50.6169 25.252 50.4849 25.024 50.2209 24.84C49.9649 24.656 49.6169 24.564 49.1769 24.564C48.7689 24.564 48.4409 24.648 48.1929 24.816C47.9449 24.976 47.8209 25.2 47.8209 25.488C47.8209 25.76 47.9409 25.968 48.1809 26.112C48.4209 26.256 48.7929 26.4 49.2969 26.544C49.7609 26.68 50.1369 26.808 50.4249 26.928C50.7129 27.048 50.9609 27.224 51.1689 27.456C51.3769 27.68 51.4809 27.976 51.4809 28.344C51.4809 28.864 51.2769 29.28 50.8689 29.592C50.4609 29.904 49.9209 30.06 49.2489 30.06ZM57.2062 24.048C57.2062 23.968 57.2462 23.928 57.3262 23.928H57.9382C58.0182 23.928 58.0582 23.968 58.0582 24.048V29.88C58.0582 29.96 58.0182 30 57.9382 30H57.3262C57.2462 30 57.2062 29.96 57.2062 29.88V29.364C57.2062 29.348 57.1982 29.336 57.1822 29.328C57.1662 29.32 57.1542 29.324 57.1462 29.34C56.8102 29.836 56.2782 30.084 55.5502 30.084C55.1662 30.084 54.8102 30.008 54.4822 29.856C54.1622 29.696 53.9062 29.468 53.7142 29.172C53.5302 28.876 53.4382 28.52 53.4382 28.104V24.048C53.4382 23.968 53.4782 23.928 53.5582 23.928H54.1702C54.2502 23.928 54.2902 23.968 54.2902 24.048V27.852C54.2902 28.308 54.4182 28.672 54.6742 28.944C54.9302 29.208 55.2782 29.34 55.7182 29.34C56.1742 29.34 56.5342 29.204 56.7982 28.932C57.0702 28.66 57.2062 28.3 57.2062 27.852V24.048ZM62.9158 23.868C63.1798 23.868 63.4078 23.92 63.5998 24.024C63.6638 24.056 63.6878 24.108 63.6718 24.18L63.5398 24.768C63.5158 24.848 63.4638 24.872 63.3838 24.84C63.2478 24.784 63.0918 24.756 62.9158 24.756L62.7598 24.768C62.3438 24.784 61.9998 24.94 61.7278 25.236C61.4558 25.524 61.3198 25.892 61.3198 26.34V29.88C61.3198 29.96 61.2798 30 61.1998 30H60.5878C60.5078 30 60.4678 29.96 60.4678 29.88V24.048C60.4678 23.968 60.5078 23.928 60.5878 23.928H61.1998C61.2798 23.928 61.3198 23.968 61.3198 24.048V24.78C61.3198 24.804 61.3238 24.82 61.3318 24.828C61.3478 24.828 61.3598 24.82 61.3678 24.804C61.5358 24.508 61.7478 24.28 62.0038 24.12C62.2678 23.952 62.5718 23.868 62.9158 23.868ZM69.9363 25.944C69.9683 26.168 69.9843 26.448 69.9843 26.784V27.168C69.9843 27.248 69.9443 27.288 69.8643 27.288H65.9883C65.9563 27.288 65.9403 27.304 65.9403 27.336C65.9563 27.776 65.9803 28.06 66.0123 28.188C66.1003 28.548 66.2883 28.832 66.5763 29.04C66.8643 29.248 67.2323 29.352 67.6803 29.352C68.0163 29.352 68.3123 29.276 68.5683 29.124C68.8243 28.972 69.0243 28.756 69.1683 28.476C69.2163 28.404 69.2723 28.388 69.3363 28.428L69.8043 28.704C69.8683 28.744 69.8843 28.8 69.8523 28.872C69.6523 29.256 69.3523 29.56 68.9523 29.784C68.5523 30 68.0923 30.108 67.5723 30.108C67.0043 30.1 66.5283 29.964 66.1443 29.7C65.7603 29.436 65.4843 29.068 65.3163 28.596C65.1723 28.212 65.1003 27.66 65.1003 26.94C65.1003 26.604 65.1043 26.332 65.1123 26.124C65.1283 25.908 65.1603 25.716 65.2083 25.548C65.3443 25.028 65.6163 24.612 66.0243 24.3C66.4403 23.988 66.9403 23.832 67.5243 23.832C68.2523 23.832 68.8123 24.016 69.2043 24.384C69.5963 24.752 69.8403 25.272 69.9363 25.944ZM67.5243 24.576C67.1323 24.576 66.8043 24.68 66.5403 24.888C66.2843 25.088 66.1163 25.36 66.0363 25.704C65.9883 25.872 65.9563 26.144 65.9403 26.52C65.9403 26.552 65.9563 26.568 65.9883 26.568H69.0963C69.1283 26.568 69.1443 26.552 69.1443 26.52C69.1283 26.16 69.1043 25.904 69.0723 25.752C68.9843 25.392 68.8043 25.108 68.5323 24.9C68.2683 24.684 67.9323 24.576 67.5243 24.576ZM79.7971 25.44C79.9171 25.824 79.9771 26.332 79.9771 26.964C79.9771 27.604 79.9251 28.1 79.8211 28.452C79.6771 28.964 79.4131 29.368 79.0291 29.664C78.6531 29.952 78.1771 30.096 77.6011 30.096C77.2891 30.096 77.0011 30.036 76.7371 29.916C76.4731 29.788 76.2531 29.608 76.0771 29.376C76.0611 29.36 76.0451 29.356 76.0291 29.364C76.0211 29.364 76.0171 29.372 76.0171 29.388V32.208C76.0171 32.288 75.9771 32.328 75.8971 32.328H75.2851C75.2051 32.328 75.1651 32.288 75.1651 32.208V24.048C75.1651 23.968 75.2051 23.928 75.2851 23.928H75.8971C75.9771 23.928 76.0171 23.968 76.0171 24.048V24.552C76.0171 24.568 76.0211 24.58 76.0291 24.588C76.0451 24.588 76.0611 24.58 76.0771 24.564C76.2531 24.332 76.4691 24.152 76.7251 24.024C76.9891 23.896 77.2811 23.832 77.6011 23.832C78.1611 23.832 78.6291 23.976 79.0051 24.264C79.3891 24.552 79.6531 24.944 79.7971 25.44ZM78.8491 28.476C78.9371 28.3 79.0011 28.104 79.0411 27.888C79.0891 27.664 79.1131 27.356 79.1131 26.964C79.1131 26.588 79.0971 26.296 79.0651 26.088C79.0331 25.872 78.9771 25.68 78.8971 25.512C78.8011 25.224 78.6291 24.996 78.3811 24.828C78.1411 24.66 77.8531 24.576 77.5171 24.576C77.1971 24.576 76.9291 24.66 76.7131 24.828C76.4971 24.996 76.3371 25.22 76.2331 25.5C76.1611 25.66 76.1091 25.848 76.0771 26.064C76.0451 26.28 76.0291 26.58 76.0291 26.964C76.0291 27.348 76.0451 27.652 76.0771 27.876C76.1091 28.092 76.1651 28.284 76.2451 28.452C76.3411 28.724 76.4971 28.944 76.7131 29.112C76.9371 29.272 77.2011 29.352 77.5051 29.352C77.8251 29.352 78.1011 29.272 78.3331 29.112C78.5731 28.952 78.7451 28.74 78.8491 28.476ZM84.6502 23.868C84.9142 23.868 85.1422 23.92 85.3342 24.024C85.3982 24.056 85.4222 24.108 85.4062 24.18L85.2742 24.768C85.2502 24.848 85.1982 24.872 85.1182 24.84C84.9822 24.784 84.8262 24.756 84.6502 24.756L84.4942 24.768C84.0782 24.784 83.7342 24.94 83.4622 25.236C83.1902 25.524 83.0542 25.892 83.0542 26.34V29.88C83.0542 29.96 83.0142 30 82.9342 30H82.3222C82.2422 30 82.2022 29.96 82.2022 29.88V24.048C82.2022 23.968 82.2422 23.928 82.3222 23.928H82.9342C83.0142 23.928 83.0542 23.968 83.0542 24.048V24.78C83.0542 24.804 83.0582 24.82 83.0662 24.828C83.0822 24.828 83.0942 24.82 83.1022 24.804C83.2702 24.508 83.4822 24.28 83.7382 24.12C84.0022 23.952 84.3062 23.868 84.6502 23.868ZM89.3307 30.096C88.7547 30.096 88.2587 29.948 87.8427 29.652C87.4267 29.356 87.1387 28.948 86.9787 28.428C86.8667 28.06 86.8107 27.568 86.8107 26.952C86.8107 26.336 86.8667 25.848 86.9787 25.488C87.1307 24.976 87.4147 24.572 87.8307 24.276C88.2467 23.98 88.7507 23.832 89.3427 23.832C89.9107 23.832 90.3987 23.98 90.8067 24.276C91.2227 24.572 91.5067 24.972 91.6587 25.476C91.7707 25.82 91.8267 26.312 91.8267 26.952C91.8267 27.6 91.7707 28.092 91.6587 28.428C91.5067 28.948 91.2227 29.356 90.8067 29.652C90.3987 29.948 89.9067 30.096 89.3307 30.096ZM89.3307 29.352C89.7147 29.352 90.0427 29.248 90.3147 29.04C90.5867 28.824 90.7707 28.536 90.8667 28.176C90.9387 27.888 90.9747 27.484 90.9747 26.964C90.9747 26.436 90.9427 26.032 90.8787 25.752C90.7827 25.392 90.5947 25.108 90.3147 24.9C90.0427 24.684 89.7107 24.576 89.3187 24.576C88.9267 24.576 88.5947 24.684 88.3227 24.9C88.0507 25.108 87.8667 25.392 87.7707 25.752C87.7067 26.032 87.6747 26.436 87.6747 26.964C87.6747 27.492 87.7067 27.896 87.7707 28.176C87.8587 28.536 88.0387 28.824 88.3107 29.04C88.5907 29.248 88.9307 29.352 89.3307 29.352ZM96.4538 22.344C96.0138 22.344 95.7138 22.444 95.5538 22.644C95.3938 22.836 95.3138 23.168 95.3138 23.64V23.88C95.3138 23.912 95.3298 23.928 95.3618 23.928H96.7058C96.7858 23.928 96.8258 23.968 96.8258 24.048V24.588C96.8258 24.668 96.7858 24.708 96.7058 24.708H95.3618C95.3298 24.708 95.3138 24.724 95.3138 24.756V29.88C95.3138 29.96 95.2738 30 95.1938 30H94.5938C94.5138 30 94.4738 29.96 94.4738 29.88V24.756C94.4738 24.724 94.4578 24.708 94.4258 24.708H93.6218C93.5418 24.708 93.5018 24.668 93.5018 24.588V24.048C93.5018 23.968 93.5418 23.928 93.6218 23.928H94.4258C94.4578 23.928 94.4738 23.912 94.4738 23.88V23.592C94.4738 23.096 94.5298 22.708 94.6418 22.428C94.7538 22.14 94.9458 21.932 95.2178 21.804C95.4978 21.668 95.8858 21.6 96.3818 21.6H96.7298C96.8098 21.6 96.8498 21.64 96.8498 21.72V22.224C96.8498 22.304 96.8098 22.344 96.7298 22.344H96.4538ZM98.9018 22.824C98.7098 22.824 98.5498 22.76 98.4218 22.632C98.2938 22.504 98.2298 22.344 98.2298 22.152C98.2298 21.952 98.2938 21.792 98.4218 21.672C98.5498 21.544 98.7098 21.48 98.9018 21.48C99.0938 21.48 99.2538 21.544 99.3818 21.672C99.5098 21.792 99.5738 21.952 99.5738 22.152C99.5738 22.344 99.5098 22.504 99.3818 22.632C99.2538 22.76 99.0938 22.824 98.9018 22.824ZM98.5658 29.988C98.4858 29.988 98.4458 29.948 98.4458 29.868V24.036C98.4458 23.956 98.4858 23.916 98.5658 23.916H99.1778C99.2578 23.916 99.2978 23.956 99.2978 24.036V29.868C99.2978 29.948 99.2578 29.988 99.1778 29.988H98.5658ZM104.625 24.516C104.625 24.596 104.585 24.636 104.505 24.636H103.149C103.117 24.636 103.101 24.652 103.101 24.684V28.224C103.101 28.608 103.185 28.88 103.353 29.04C103.529 29.192 103.801 29.268 104.169 29.268H104.469C104.549 29.268 104.589 29.308 104.589 29.388V29.88C104.589 29.96 104.549 30 104.469 30C104.373 30.008 104.225 30.012 104.025 30.012C103.449 30.012 103.013 29.904 102.717 29.688C102.421 29.472 102.273 29.072 102.273 28.488V24.684C102.273 24.652 102.257 24.636 102.225 24.636H101.493C101.413 24.636 101.373 24.596 101.373 24.516V24.048C101.373 23.968 101.413 23.928 101.493 23.928H102.225C102.257 23.928 102.273 23.912 102.273 23.88V22.488C102.273 22.408 102.313 22.368 102.393 22.368H102.981C103.061 22.368 103.101 22.408 103.101 22.488V23.88C103.101 23.912 103.117 23.928 103.149 23.928H104.505C104.585 23.928 104.625 23.968 104.625 24.048V24.516ZM108.873 23.832C109.593 23.832 110.149 24.016 110.541 24.384C110.933 24.752 111.129 25.24 111.129 25.848V29.88C111.129 29.96 111.089 30 111.009 30H110.397C110.317 30 110.277 29.96 110.277 29.88V29.388C110.277 29.372 110.269 29.36 110.253 29.352C110.245 29.344 110.233 29.348 110.217 29.364C110.017 29.604 109.757 29.788 109.437 29.916C109.117 30.036 108.761 30.096 108.369 30.096C107.801 30.096 107.325 29.952 106.941 29.664C106.557 29.376 106.365 28.936 106.365 28.344C106.365 27.744 106.581 27.272 107.013 26.928C107.453 26.576 108.061 26.4 108.837 26.4H110.229C110.261 26.4 110.277 26.384 110.277 26.352V25.896C110.277 25.488 110.161 25.168 109.929 24.936C109.705 24.696 109.353 24.576 108.873 24.576C108.489 24.576 108.177 24.652 107.937 24.804C107.697 24.948 107.549 25.152 107.493 25.416C107.469 25.496 107.421 25.532 107.349 25.524L106.701 25.44C106.613 25.424 106.577 25.392 106.593 25.344C106.657 24.896 106.897 24.532 107.312 24.252C107.729 23.972 108.249 23.832 108.873 23.832ZM108.537 29.364C109.009 29.364 109.417 29.248 109.761 29.016C110.105 28.776 110.277 28.456 110.277 28.056V27.12C110.277 27.088 110.261 27.072 110.229 27.072H108.969C108.441 27.072 108.017 27.18 107.697 27.396C107.377 27.612 107.217 27.912 107.217 28.296C107.217 28.648 107.337 28.916 107.576 29.1C107.825 29.276 108.145 29.364 108.537 29.364ZM118.069 25.476C118.165 25.836 118.213 26.332 118.213 26.964C118.213 27.62 118.157 28.128 118.045 28.488C117.893 28.984 117.629 29.376 117.253 29.664C116.877 29.952 116.409 30.096 115.849 30.096C115.529 30.096 115.237 30.032 114.973 29.904C114.709 29.776 114.489 29.592 114.313 29.352C114.305 29.336 114.293 29.332 114.277 29.34C114.261 29.34 114.253 29.348 114.253 29.364V29.88C114.253 29.96 114.213 30 114.133 30H113.521C113.441 30 113.401 29.96 113.401 29.88V21.72C113.401 21.64 113.441 21.6 113.521 21.6H114.133C114.213 21.6 114.253 21.64 114.253 21.72V24.552C114.253 24.568 114.257 24.58 114.265 24.588C114.281 24.588 114.297 24.58 114.313 24.564C114.489 24.332 114.709 24.152 114.973 24.024C115.237 23.896 115.529 23.832 115.849 23.832C116.417 23.832 116.893 23.98 117.277 24.276C117.661 24.564 117.925 24.964 118.069 25.476ZM117.145 28.416C117.225 28.248 117.281 28.06 117.313 27.852C117.345 27.636 117.361 27.34 117.361 26.964C117.361 26.572 117.337 26.268 117.289 26.052C117.249 25.828 117.181 25.628 117.085 25.452C116.981 25.188 116.813 24.976 116.581 24.816C116.349 24.656 116.073 24.576 115.753 24.576C115.449 24.576 115.185 24.66 114.961 24.828C114.745 24.988 114.589 25.204 114.493 25.476C114.413 25.644 114.353 25.836 114.313 26.052C114.281 26.268 114.265 26.572 114.265 26.964C114.265 27.348 114.281 27.648 114.313 27.864C114.353 28.072 114.409 28.26 114.481 28.428C114.585 28.708 114.745 28.932 114.961 29.1C115.177 29.268 115.445 29.352 115.765 29.352C116.101 29.352 116.389 29.268 116.629 29.1C116.877 28.932 117.049 28.704 117.145 28.416ZM121.028 22.824C120.836 22.824 120.676 22.76 120.548 22.632C120.42 22.504 120.356 22.344 120.356 22.152C120.356 21.952 120.42 21.792 120.548 21.672C120.676 21.544 120.836 21.48 121.028 21.48C121.22 21.48 121.38 21.544 121.508 21.672C121.636 21.792 121.7 21.952 121.7 22.152C121.7 22.344 121.636 22.504 121.508 22.632C121.38 22.76 121.22 22.824 121.028 22.824ZM120.692 29.988C120.612 29.988 120.572 29.948 120.572 29.868V24.036C120.572 23.956 120.612 23.916 120.692 23.916H121.304C121.384 23.916 121.424 23.956 121.424 24.036V29.868C121.424 29.948 121.384 29.988 121.304 29.988H120.692ZM124.131 30C124.051 30 124.011 29.96 124.011 29.88V21.72C124.011 21.64 124.051 21.6 124.131 21.6H124.743C124.823 21.6 124.863 21.64 124.863 21.72V29.88C124.863 29.96 124.823 30 124.743 30H124.131ZM127.852 22.824C127.66 22.824 127.5 22.76 127.372 22.632C127.244 22.504 127.18 22.344 127.18 22.152C127.18 21.952 127.244 21.792 127.372 21.672C127.5 21.544 127.66 21.48 127.852 21.48C128.044 21.48 128.204 21.544 128.332 21.672C128.46 21.792 128.524 21.952 128.524 22.152C128.524 22.344 128.46 22.504 128.332 22.632C128.204 22.76 128.044 22.824 127.852 22.824ZM127.516 29.988C127.436 29.988 127.396 29.948 127.396 29.868V24.036C127.396 23.956 127.436 23.916 127.516 23.916H128.128C128.208 23.916 128.248 23.956 128.248 24.036V29.868C128.248 29.948 128.208 29.988 128.128 29.988H127.516ZM133.559 24.516C133.559 24.596 133.519 24.636 133.439 24.636H132.083C132.051 24.636 132.035 24.652 132.035 24.684V28.224C132.035 28.608 132.119 28.88 132.287 29.04C132.463 29.192 132.735 29.268 133.103 29.268H133.403C133.483 29.268 133.523 29.308 133.523 29.388V29.88C133.523 29.96 133.483 30 133.403 30C133.307 30.008 133.159 30.012 132.959 30.012C132.383 30.012 131.947 29.904 131.651 29.688C131.355 29.472 131.207 29.072 131.207 28.488V24.684C131.207 24.652 131.191 24.636 131.159 24.636H130.427C130.347 24.636 130.307 24.596 130.307 24.516V24.048C130.307 23.968 130.347 23.928 130.427 23.928H131.159C131.191 23.928 131.207 23.912 131.207 23.88V22.488C131.207 22.408 131.247 22.368 131.327 22.368H131.915C131.995 22.368 132.035 22.408 132.035 22.488V23.88C132.035 23.912 132.051 23.928 132.083 23.928H133.439C133.519 23.928 133.559 23.968 133.559 24.048V24.516ZM135.43 32.4C135.374 32.4 135.346 32.36 135.346 32.28V31.8C135.346 31.72 135.386 31.68 135.466 31.68H135.514C135.826 31.672 136.066 31.624 136.234 31.536C136.41 31.456 136.558 31.3 136.678 31.068C136.806 30.844 136.942 30.5 137.086 30.036C137.102 30.004 137.102 29.98 137.086 29.964L135.058 24.06L135.046 24.012C135.046 23.956 135.082 23.928 135.154 23.928H135.79C135.862 23.928 135.91 23.96 135.934 24.024L137.494 28.872C137.502 28.888 137.514 28.896 137.53 28.896C137.546 28.896 137.558 28.888 137.566 28.872L139.102 24.024C139.126 23.96 139.174 23.928 139.246 23.928H139.87C139.958 23.928 139.99 23.972 139.966 24.06L137.746 30.528C137.554 31.064 137.374 31.46 137.206 31.716C137.038 31.972 136.826 32.148 136.57 32.244C136.322 32.348 135.97 32.4 135.514 32.4H135.43ZM149.308 25.476C149.404 25.836 149.452 26.332 149.452 26.964C149.452 27.62 149.396 28.128 149.284 28.488C149.132 28.984 148.868 29.376 148.492 29.664C148.116 29.952 147.648 30.096 147.088 30.096C146.768 30.096 146.476 30.032 146.212 29.904C145.948 29.776 145.728 29.592 145.552 29.352C145.544 29.336 145.532 29.332 145.516 29.34C145.5 29.34 145.492 29.348 145.492 29.364V29.88C145.492 29.96 145.452 30 145.372 30H144.76C144.68 30 144.64 29.96 144.64 29.88V21.72C144.64 21.64 144.68 21.6 144.76 21.6H145.372C145.452 21.6 145.492 21.64 145.492 21.72V24.552C145.492 24.568 145.496 24.58 145.504 24.588C145.52 24.588 145.536 24.58 145.552 24.564C145.728 24.332 145.948 24.152 146.212 24.024C146.476 23.896 146.768 23.832 147.088 23.832C147.656 23.832 148.132 23.98 148.516 24.276C148.9 24.564 149.164 24.964 149.308 25.476ZM148.384 28.416C148.464 28.248 148.52 28.06 148.552 27.852C148.584 27.636 148.6 27.34 148.6 26.964C148.6 26.572 148.576 26.268 148.528 26.052C148.488 25.828 148.42 25.628 148.324 25.452C148.22 25.188 148.052 24.976 147.82 24.816C147.588 24.656 147.312 24.576 146.992 24.576C146.688 24.576 146.424 24.66 146.2 24.828C145.984 24.988 145.828 25.204 145.732 25.476C145.652 25.644 145.592 25.836 145.552 26.052C145.52 26.268 145.504 26.572 145.504 26.964C145.504 27.348 145.52 27.648 145.552 27.864C145.592 28.072 145.648 28.26 145.72 28.428C145.824 28.708 145.984 28.932 146.2 29.1C146.416 29.268 146.684 29.352 147.004 29.352C147.34 29.352 147.628 29.268 147.868 29.1C148.116 28.932 148.288 28.704 148.384 28.416ZM151.309 32.4C151.253 32.4 151.225 32.36 151.225 32.28V31.8C151.225 31.72 151.265 31.68 151.345 31.68H151.393C151.705 31.672 151.945 31.624 152.113 31.536C152.289 31.456 152.437 31.3 152.557 31.068C152.685 30.844 152.821 30.5 152.965 30.036C152.981 30.004 152.981 29.98 152.965 29.964L150.937 24.06L150.925 24.012C150.925 23.956 150.961 23.928 151.033 23.928H151.669C151.741 23.928 151.789 23.96 151.813 24.024L153.373 28.872C153.381 28.888 153.393 28.896 153.409 28.896C153.425 28.896 153.437 28.888 153.445 28.872L154.981 24.024C155.005 23.96 155.053 23.928 155.125 23.928H155.749C155.837 23.928 155.869 23.972 155.845 24.06L153.625 30.528C153.433 31.064 153.253 31.46 153.085 31.716C152.917 31.972 152.705 32.148 152.449 32.244C152.201 32.348 151.849 32.4 151.393 32.4H151.309ZM164.191 24.048C164.191 23.968 164.231 23.928 164.311 23.928H164.923C165.003 23.928 165.043 23.968 165.043 24.048V29.88C165.043 29.96 165.003 30 164.923 30H164.311C164.231 30 164.191 29.96 164.191 29.88V29.364C164.191 29.348 164.183 29.336 164.167 29.328C164.151 29.32 164.139 29.324 164.131 29.34C163.795 29.836 163.263 30.084 162.535 30.084C162.151 30.084 161.795 30.008 161.467 29.856C161.147 29.696 160.891 29.468 160.699 29.172C160.515 28.876 160.423 28.52 160.423 28.104V24.048C160.423 23.968 160.463 23.928 160.543 23.928H161.155C161.235 23.928 161.275 23.968 161.275 24.048V27.852C161.275 28.308 161.403 28.672 161.659 28.944C161.915 29.208 162.263 29.34 162.703 29.34C163.159 29.34 163.519 29.204 163.783 28.932C164.055 28.66 164.191 28.3 164.191 27.852V24.048ZM170.176 24.516C170.176 24.596 170.136 24.636 170.056 24.636H168.7C168.668 24.636 168.652 24.652 168.652 24.684V28.224C168.652 28.608 168.736 28.88 168.904 29.04C169.08 29.192 169.352 29.268 169.72 29.268H170.02C170.1 29.268 170.14 29.308 170.14 29.388V29.88C170.14 29.96 170.1 30 170.02 30C169.924 30.008 169.776 30.012 169.576 30.012C169 30.012 168.564 29.904 168.268 29.688C167.972 29.472 167.824 29.072 167.824 28.488V24.684C167.824 24.652 167.808 24.636 167.776 24.636H167.044C166.964 24.636 166.924 24.596 166.924 24.516V24.048C166.924 23.968 166.964 23.928 167.044 23.928H167.776C167.808 23.928 167.824 23.912 167.824 23.88V22.488C167.824 22.408 167.864 22.368 167.944 22.368H168.532C168.612 22.368 168.652 22.408 168.652 22.488V23.88C168.652 23.912 168.668 23.928 168.7 23.928H170.056C170.136 23.928 170.176 23.968 170.176 24.048V24.516ZM172.899 22.824C172.707 22.824 172.547 22.76 172.419 22.632C172.291 22.504 172.227 22.344 172.227 22.152C172.227 21.952 172.291 21.792 172.419 21.672C172.547 21.544 172.707 21.48 172.899 21.48C173.091 21.48 173.251 21.544 173.379 21.672C173.507 21.792 173.571 21.952 173.571 22.152C173.571 22.344 173.507 22.504 173.379 22.632C173.251 22.76 173.091 22.824 172.899 22.824ZM172.563 29.988C172.483 29.988 172.443 29.948 172.443 29.868V24.036C172.443 23.956 172.483 23.916 172.563 23.916H173.175C173.255 23.916 173.295 23.956 173.295 24.036V29.868C173.295 29.948 173.255 29.988 173.175 29.988H172.563ZM176.002 30C175.922 30 175.882 29.96 175.882 29.88V21.72C175.882 21.64 175.922 21.6 176.002 21.6H176.614C176.694 21.6 176.734 21.64 176.734 21.72V29.88C176.734 29.96 176.694 30 176.614 30H176.002ZM179.724 22.824C179.532 22.824 179.372 22.76 179.244 22.632C179.116 22.504 179.052 22.344 179.052 22.152C179.052 21.952 179.116 21.792 179.244 21.672C179.372 21.544 179.532 21.48 179.724 21.48C179.916 21.48 180.076 21.544 180.204 21.672C180.332 21.792 180.396 21.952 180.396 22.152C180.396 22.344 180.332 22.504 180.204 22.632C180.076 22.76 179.916 22.824 179.724 22.824ZM179.388 29.988C179.308 29.988 179.268 29.948 179.268 29.868V24.036C179.268 23.956 179.308 23.916 179.388 23.916H180C180.08 23.916 180.12 23.956 180.12 24.036V29.868C180.12 29.948 180.08 29.988 180 29.988H179.388ZM182.274 30C182.194 30 182.154 29.96 182.154 29.88V29.304C182.154 29.248 182.17 29.2 182.202 29.16L185.61 24.768C185.626 24.752 185.63 24.74 185.622 24.732C185.614 24.716 185.602 24.708 185.586 24.708H182.322C182.242 24.708 182.202 24.668 182.202 24.588V24.048C182.202 23.968 182.242 23.928 182.322 23.928H186.534C186.614 23.928 186.654 23.968 186.654 24.048V24.624C186.654 24.68 186.638 24.728 186.606 24.768L183.162 29.16C183.146 29.176 183.142 29.192 183.15 29.208C183.158 29.216 183.17 29.22 183.186 29.22H186.534C186.614 29.22 186.654 29.26 186.654 29.34V29.88C186.654 29.96 186.614 30 186.534 30H182.274ZM189.126 22.824C188.934 22.824 188.774 22.76 188.646 22.632C188.518 22.504 188.454 22.344 188.454 22.152C188.454 21.952 188.518 21.792 188.646 21.672C188.774 21.544 188.934 21.48 189.126 21.48C189.318 21.48 189.478 21.544 189.606 21.672C189.734 21.792 189.798 21.952 189.798 22.152C189.798 22.344 189.734 22.504 189.606 22.632C189.478 22.76 189.318 22.824 189.126 22.824ZM188.79 29.988C188.71 29.988 188.67 29.948 188.67 29.868V24.036C188.67 23.956 188.71 23.916 188.79 23.916H189.402C189.482 23.916 189.522 23.956 189.522 24.036V29.868C189.522 29.948 189.482 29.988 189.402 29.988H188.79ZM194.628 23.844C195.268 23.844 195.776 24.032 196.152 24.408C196.536 24.784 196.728 25.288 196.728 25.92V29.88C196.728 29.96 196.688 30 196.608 30H195.996C195.916 30 195.876 29.96 195.876 29.88V26.088C195.876 25.648 195.74 25.288 195.468 25.008C195.204 24.728 194.86 24.588 194.436 24.588C193.996 24.588 193.64 24.724 193.368 24.996C193.096 25.268 192.96 25.624 192.96 26.064V29.88C192.96 29.96 192.92 30 192.84 30H192.228C192.148 30 192.108 29.96 192.108 29.88V24.048C192.108 23.968 192.148 23.928 192.228 23.928H192.84C192.92 23.928 192.96 23.968 192.96 24.048V24.564C192.96 24.58 192.964 24.592 192.972 24.6C192.988 24.608 193 24.604 193.008 24.588C193.36 24.092 193.9 23.844 194.628 23.844ZM202.821 24.048C202.821 23.968 202.861 23.928 202.941 23.928H203.553C203.633 23.928 203.673 23.968 203.673 24.048V29.796C203.673 30.692 203.413 31.348 202.893 31.764C202.381 32.18 201.673 32.388 200.769 32.388C200.585 32.388 200.445 32.384 200.349 32.376C200.269 32.368 200.229 32.324 200.229 32.244L200.253 31.692C200.253 31.652 200.265 31.62 200.289 31.596C200.313 31.58 200.341 31.576 200.373 31.584L200.697 31.596C201.441 31.596 201.981 31.448 202.317 31.152C202.653 30.864 202.821 30.404 202.821 29.772V29.328C202.821 29.312 202.813 29.304 202.797 29.304C202.789 29.296 202.777 29.3 202.761 29.316C202.393 29.796 201.869 30.036 201.189 30.036C200.669 30.036 200.205 29.896 199.797 29.616C199.397 29.336 199.129 28.94 198.993 28.428C198.897 28.1 198.849 27.612 198.849 26.964C198.849 26.612 198.857 26.316 198.873 26.076C198.897 25.836 198.941 25.62 199.005 25.428C199.149 24.948 199.409 24.564 199.785 24.276C200.161 23.98 200.613 23.832 201.141 23.832C201.853 23.832 202.393 24.068 202.761 24.54C202.777 24.556 202.789 24.56 202.797 24.552C202.813 24.544 202.821 24.532 202.821 24.516V24.048ZM202.761 28.164C202.785 28.044 202.801 27.896 202.809 27.72C202.817 27.544 202.821 27.288 202.821 26.952C202.821 26.544 202.817 26.272 202.809 26.136C202.801 25.992 202.781 25.86 202.749 25.74C202.685 25.404 202.525 25.128 202.269 24.912C202.021 24.688 201.705 24.576 201.321 24.576C200.945 24.576 200.625 24.684 200.361 24.9C200.105 25.116 199.925 25.396 199.821 25.74C199.741 25.996 199.701 26.396 199.701 26.94C199.701 27.524 199.741 27.928 199.821 28.152C199.901 28.488 200.073 28.768 200.337 28.992C200.609 29.208 200.937 29.316 201.321 29.316C201.713 29.316 202.033 29.208 202.281 28.992C202.537 28.776 202.697 28.5 202.761 28.164ZM211.193 30.096C210.617 30.096 210.121 29.948 209.705 29.652C209.297 29.348 209.017 28.94 208.865 28.428C208.761 28.076 208.709 27.58 208.709 26.94C208.709 26.364 208.761 25.876 208.865 25.476C209.009 24.98 209.289 24.584 209.705 24.288C210.121 23.984 210.617 23.832 211.193 23.832C211.777 23.832 212.281 23.98 212.705 24.276C213.137 24.572 213.417 24.94 213.545 25.38C213.585 25.524 213.609 25.644 213.617 25.74V25.764C213.617 25.82 213.581 25.856 213.509 25.872L212.909 25.956H212.885C212.829 25.956 212.793 25.92 212.777 25.848L212.741 25.668C212.669 25.364 212.493 25.108 212.213 24.9C211.933 24.684 211.593 24.576 211.193 24.576C210.793 24.576 210.457 24.684 210.185 24.9C209.921 25.108 209.749 25.388 209.669 25.74C209.597 26.044 209.561 26.448 209.561 26.952C209.561 27.48 209.597 27.888 209.669 28.176C209.749 28.536 209.921 28.824 210.185 29.04C210.457 29.248 210.793 29.352 211.193 29.352C211.585 29.352 211.921 29.252 212.201 29.052C212.489 28.844 212.669 28.58 212.741 28.26V28.212L212.753 28.164C212.761 28.084 212.809 28.052 212.897 28.068L213.485 28.164C213.565 28.18 213.601 28.224 213.593 28.296L213.545 28.536C213.425 29 213.149 29.376 212.717 29.664C212.285 29.952 211.777 30.096 211.193 30.096ZM217.917 30.096C217.341 30.096 216.845 29.948 216.429 29.652C216.013 29.356 215.725 28.948 215.565 28.428C215.453 28.06 215.397 27.568 215.397 26.952C215.397 26.336 215.453 25.848 215.565 25.488C215.717 24.976 216.001 24.572 216.417 24.276C216.833 23.98 217.337 23.832 217.929 23.832C218.497 23.832 218.985 23.98 219.393 24.276C219.809 24.572 220.093 24.972 220.245 25.476C220.357 25.82 220.413 26.312 220.413 26.952C220.413 27.6 220.357 28.092 220.245 28.428C220.093 28.948 219.809 29.356 219.393 29.652C218.985 29.948 218.493 30.096 217.917 30.096ZM217.917 29.352C218.301 29.352 218.629 29.248 218.901 29.04C219.173 28.824 219.357 28.536 219.453 28.176C219.525 27.888 219.561 27.484 219.561 26.964C219.561 26.436 219.529 26.032 219.465 25.752C219.369 25.392 219.181 25.108 218.901 24.9C218.629 24.684 218.297 24.576 217.905 24.576C217.513 24.576 217.181 24.684 216.909 24.9C216.637 25.108 216.453 25.392 216.357 25.752C216.293 26.032 216.261 26.436 216.261 26.964C216.261 27.492 216.293 27.896 216.357 28.176C216.445 28.536 216.625 28.824 216.897 29.04C217.177 29.248 217.517 29.352 217.917 29.352ZM228.784 23.844C229.384 23.844 229.856 24.024 230.2 24.384C230.552 24.744 230.728 25.236 230.728 25.86V29.88C230.728 29.96 230.688 30 230.608 30H230.008C229.928 30 229.888 29.96 229.888 29.88V26.028C229.888 25.588 229.76 25.24 229.504 24.984C229.256 24.72 228.928 24.588 228.52 24.588C228.096 24.588 227.752 24.716 227.488 24.972C227.232 25.228 227.104 25.572 227.104 26.004V29.88C227.104 29.96 227.064 30 226.984 30H226.372C226.292 30 226.252 29.96 226.252 29.88V26.028C226.252 25.588 226.128 25.24 225.88 24.984C225.632 24.72 225.3 24.588 224.884 24.588C224.46 24.588 224.12 24.716 223.864 24.972C223.616 25.228 223.492 25.572 223.492 26.004V29.88C223.492 29.96 223.452 30 223.372 30H222.76C222.68 30 222.64 29.96 222.64 29.88V24.048C222.64 23.968 222.68 23.928 222.76 23.928H223.372C223.452 23.928 223.492 23.968 223.492 24.048V24.528C223.492 24.544 223.496 24.556 223.504 24.564C223.52 24.564 223.536 24.556 223.552 24.54C223.728 24.308 223.952 24.136 224.224 24.024C224.504 23.904 224.812 23.844 225.148 23.844C225.564 23.844 225.92 23.928 226.216 24.096C226.512 24.264 226.736 24.508 226.888 24.828C226.904 24.868 226.924 24.868 226.948 24.828C227.124 24.5 227.372 24.256 227.692 24.096C228.012 23.928 228.376 23.844 228.784 23.844ZM237.781 25.44C237.901 25.824 237.961 26.332 237.961 26.964C237.961 27.604 237.909 28.1 237.805 28.452C237.661 28.964 237.397 29.368 237.013 29.664C236.637 29.952 236.161 30.096 235.585 30.096C235.273 30.096 234.985 30.036 234.721 29.916C234.457 29.788 234.237 29.608 234.061 29.376C234.045 29.36 234.029 29.356 234.013 29.364C234.005 29.364 234.001 29.372 234.001 29.388V32.208C234.001 32.288 233.961 32.328 233.881 32.328H233.269C233.189 32.328 233.149 32.288 233.149 32.208V24.048C233.149 23.968 233.189 23.928 233.269 23.928H233.881C233.961 23.928 234.001 23.968 234.001 24.048V24.552C234.001 24.568 234.005 24.58 234.013 24.588C234.029 24.588 234.045 24.58 234.061 24.564C234.237 24.332 234.453 24.152 234.709 24.024C234.973 23.896 235.265 23.832 235.585 23.832C236.145 23.832 236.613 23.976 236.989 24.264C237.373 24.552 237.637 24.944 237.781 25.44ZM236.833 28.476C236.921 28.3 236.985 28.104 237.025 27.888C237.073 27.664 237.097 27.356 237.097 26.964C237.097 26.588 237.081 26.296 237.049 26.088C237.017 25.872 236.961 25.68 236.881 25.512C236.785 25.224 236.613 24.996 236.365 24.828C236.125 24.66 235.837 24.576 235.501 24.576C235.181 24.576 234.913 24.66 234.697 24.828C234.481 24.996 234.321 25.22 234.217 25.5C234.145 25.66 234.093 25.848 234.061 26.064C234.029 26.28 234.013 26.58 234.013 26.964C234.013 27.348 234.029 27.652 234.061 27.876C234.093 28.092 234.149 28.284 234.229 28.452C234.325 28.724 234.481 28.944 234.697 29.112C234.921 29.272 235.185 29.352 235.489 29.352C235.809 29.352 236.085 29.272 236.317 29.112C236.557 28.952 236.729 28.74 236.833 28.476ZM242.287 23.832C243.007 23.832 243.563 24.016 243.955 24.384C244.347 24.752 244.543 25.24 244.543 25.848V29.88C244.543 29.96 244.503 30 244.423 30H243.811C243.731 30 243.691 29.96 243.691 29.88V29.388C243.691 29.372 243.683 29.36 243.667 29.352C243.659 29.344 243.647 29.348 243.631 29.364C243.431 29.604 243.171 29.788 242.851 29.916C242.531 30.036 242.175 30.096 241.783 30.096C241.215 30.096 240.739 29.952 240.355 29.664C239.971 29.376 239.779 28.936 239.779 28.344C239.779 27.744 239.995 27.272 240.427 26.928C240.867 26.576 241.475 26.4 242.251 26.4H243.643C243.675 26.4 243.691 26.384 243.691 26.352V25.896C243.691 25.488 243.575 25.168 243.343 24.936C243.119 24.696 242.767 24.576 242.287 24.576C241.903 24.576 241.591 24.652 241.351 24.804C241.111 24.948 240.963 25.152 240.907 25.416C240.883 25.496 240.835 25.532 240.763 25.524L240.115 25.44C240.027 25.424 239.991 25.392 240.007 25.344C240.071 24.896 240.311 24.532 240.727 24.252C241.143 23.972 241.663 23.832 242.287 23.832ZM241.951 29.364C242.423 29.364 242.831 29.248 243.175 29.016C243.519 28.776 243.691 28.456 243.691 28.056V27.12C243.691 27.088 243.675 27.072 243.643 27.072H242.383C241.855 27.072 241.431 27.18 241.111 27.396C240.791 27.612 240.631 27.912 240.631 28.296C240.631 28.648 240.751 28.916 240.991 29.1C241.239 29.276 241.559 29.364 241.951 29.364ZM249.335 23.844C249.975 23.844 250.483 24.032 250.859 24.408C251.243 24.784 251.435 25.288 251.435 25.92V29.88C251.435 29.96 251.395 30 251.315 30H250.703C250.623 30 250.583 29.96 250.583 29.88V26.088C250.583 25.648 250.447 25.288 250.175 25.008C249.911 24.728 249.567 24.588 249.143 24.588C248.703 24.588 248.347 24.724 248.075 24.996C247.803 25.268 247.667 25.624 247.667 26.064V29.88C247.667 29.96 247.627 30 247.547 30H246.935C246.855 30 246.815 29.96 246.815 29.88V24.048C246.815 23.968 246.855 23.928 246.935 23.928H247.547C247.627 23.928 247.667 23.968 247.667 24.048V24.564C247.667 24.58 247.671 24.592 247.679 24.6C247.695 24.608 247.707 24.604 247.715 24.588C248.067 24.092 248.607 23.844 249.335 23.844ZM253.403 32.4C253.347 32.4 253.319 32.36 253.319 32.28V31.8C253.319 31.72 253.359 31.68 253.439 31.68H253.487C253.799 31.672 254.039 31.624 254.207 31.536C254.383 31.456 254.531 31.3 254.651 31.068C254.779 30.844 254.915 30.5 255.059 30.036C255.075 30.004 255.075 29.98 255.059 29.964L253.031 24.06L253.019 24.012C253.019 23.956 253.055 23.928 253.127 23.928H253.763C253.835 23.928 253.883 23.96 253.907 24.024L255.467 28.872C255.475 28.888 255.487 28.896 255.503 28.896C255.519 28.896 255.531 28.888 255.539 28.872L257.075 24.024C257.099 23.96 257.147 23.928 257.219 23.928H257.843C257.931 23.928 257.963 23.972 257.939 24.06L255.719 30.528C255.527 31.064 255.347 31.46 255.179 31.716C255.011 31.972 254.799 32.148 254.543 32.244C254.295 32.348 253.943 32.4 253.487 32.4H253.403ZM265.06 23.868C265.324 23.868 265.552 23.92 265.744 24.024C265.808 24.056 265.832 24.108 265.816 24.18L265.684 24.768C265.66 24.848 265.608 24.872 265.528 24.84C265.392 24.784 265.236 24.756 265.06 24.756L264.904 24.768C264.488 24.784 264.144 24.94 263.872 25.236C263.6 25.524 263.464 25.892 263.464 26.34V29.88C263.464 29.96 263.424 30 263.344 30H262.732C262.652 30 262.612 29.96 262.612 29.88V24.048C262.612 23.968 262.652 23.928 262.732 23.928H263.344C263.424 23.928 263.464 23.968 263.464 24.048V24.78C263.464 24.804 263.468 24.82 263.476 24.828C263.492 24.828 263.504 24.82 263.512 24.804C263.68 24.508 263.892 24.28 264.148 24.12C264.412 23.952 264.716 23.868 265.06 23.868ZM272.081 25.944C272.113 26.168 272.129 26.448 272.129 26.784V27.168C272.129 27.248 272.089 27.288 272.009 27.288H268.133C268.101 27.288 268.085 27.304 268.085 27.336C268.101 27.776 268.125 28.06 268.157 28.188C268.245 28.548 268.433 28.832 268.721 29.04C269.009 29.248 269.377 29.352 269.825 29.352C270.161 29.352 270.457 29.276 270.713 29.124C270.969 28.972 271.169 28.756 271.313 28.476C271.361 28.404 271.417 28.388 271.481 28.428L271.949 28.704C272.013 28.744 272.029 28.8 271.997 28.872C271.797 29.256 271.497 29.56 271.097 29.784C270.697 30 270.237 30.108 269.717 30.108C269.149 30.1 268.673 29.964 268.289 29.7C267.905 29.436 267.629 29.068 267.461 28.596C267.317 28.212 267.245 27.66 267.245 26.94C267.245 26.604 267.249 26.332 267.257 26.124C267.273 25.908 267.305 25.716 267.353 25.548C267.489 25.028 267.761 24.612 268.169 24.3C268.585 23.988 269.085 23.832 269.669 23.832C270.397 23.832 270.957 24.016 271.349 24.384C271.741 24.752 271.985 25.272 272.081 25.944ZM269.669 24.576C269.277 24.576 268.949 24.68 268.685 24.888C268.429 25.088 268.261 25.36 268.181 25.704C268.133 25.872 268.101 26.144 268.085 26.52C268.085 26.552 268.101 26.568 268.133 26.568H271.241C271.273 26.568 271.289 26.552 271.289 26.52C271.273 26.16 271.249 25.904 271.217 25.752C271.129 25.392 270.949 25.108 270.677 24.9C270.413 24.684 270.077 24.576 269.669 24.576ZM276.21 30.06C275.762 30.06 275.362 29.988 275.01 29.844C274.666 29.7 274.398 29.508 274.206 29.268C274.022 29.028 273.93 28.76 273.93 28.464V28.32C273.93 28.24 273.97 28.2 274.05 28.2H274.626C274.706 28.2 274.746 28.24 274.746 28.32V28.416C274.746 28.68 274.882 28.912 275.154 29.112C275.434 29.304 275.782 29.4 276.198 29.4C276.614 29.4 276.95 29.308 277.206 29.124C277.462 28.932 277.59 28.692 277.59 28.404C277.59 28.204 277.522 28.04 277.386 27.912C277.258 27.784 277.102 27.684 276.918 27.612C276.742 27.54 276.466 27.448 276.09 27.336C275.642 27.208 275.274 27.08 274.986 26.952C274.698 26.824 274.454 26.648 274.254 26.424C274.062 26.192 273.966 25.9 273.966 25.548C273.966 25.036 274.166 24.628 274.566 24.324C274.966 24.02 275.494 23.868 276.15 23.868C276.59 23.868 276.978 23.94 277.314 24.084C277.658 24.228 277.922 24.428 278.106 24.684C278.29 24.932 278.382 25.212 278.382 25.524V25.56C278.382 25.64 278.342 25.68 278.262 25.68H277.698C277.618 25.68 277.578 25.64 277.578 25.56V25.524C277.578 25.252 277.446 25.024 277.182 24.84C276.926 24.656 276.578 24.564 276.138 24.564C275.73 24.564 275.402 24.648 275.154 24.816C274.906 24.976 274.782 25.2 274.782 25.488C274.782 25.76 274.902 25.968 275.142 26.112C275.382 26.256 275.754 26.4 276.258 26.544C276.722 26.68 277.098 26.808 277.386 26.928C277.674 27.048 277.922 27.224 278.13 27.456C278.338 27.68 278.442 27.976 278.442 28.344C278.442 28.864 278.238 29.28 277.83 29.592C277.422 29.904 276.882 30.06 276.21 30.06ZM282.811 30.096C282.235 30.096 281.739 29.948 281.323 29.652C280.907 29.356 280.619 28.948 280.459 28.428C280.347 28.06 280.291 27.568 280.291 26.952C280.291 26.336 280.347 25.848 280.459 25.488C280.611 24.976 280.895 24.572 281.311 24.276C281.727 23.98 282.231 23.832 282.823 23.832C283.391 23.832 283.879 23.98 284.287 24.276C284.703 24.572 284.987 24.972 285.139 25.476C285.251 25.82 285.307 26.312 285.307 26.952C285.307 27.6 285.251 28.092 285.139 28.428C284.987 28.948 284.703 29.356 284.287 29.652C283.879 29.948 283.387 30.096 282.811 30.096ZM282.811 29.352C283.195 29.352 283.523 29.248 283.795 29.04C284.067 28.824 284.251 28.536 284.347 28.176C284.419 27.888 284.455 27.484 284.455 26.964C284.455 26.436 284.423 26.032 284.359 25.752C284.263 25.392 284.075 25.108 283.795 24.9C283.523 24.684 283.191 24.576 282.799 24.576C282.407 24.576 282.075 24.684 281.803 24.9C281.531 25.108 281.347 25.392 281.251 25.752C281.187 26.032 281.155 26.436 281.155 26.964C281.155 27.492 281.187 27.896 281.251 28.176C281.339 28.536 281.519 28.824 281.791 29.04C282.071 29.248 282.411 29.352 282.811 29.352ZM291.206 24.048C291.206 23.968 291.246 23.928 291.326 23.928H291.938C292.018 23.928 292.058 23.968 292.058 24.048V29.88C292.058 29.96 292.018 30 291.938 30H291.326C291.246 30 291.206 29.96 291.206 29.88V29.364C291.206 29.348 291.198 29.336 291.182 29.328C291.166 29.32 291.154 29.324 291.146 29.34C290.81 29.836 290.278 30.084 289.55 30.084C289.166 30.084 288.81 30.008 288.482 29.856C288.162 29.696 287.906 29.468 287.714 29.172C287.53 28.876 287.438 28.52 287.438 28.104V24.048C287.438 23.968 287.478 23.928 287.558 23.928H288.17C288.25 23.928 288.29 23.968 288.29 24.048V27.852C288.29 28.308 288.418 28.672 288.674 28.944C288.93 29.208 289.278 29.34 289.718 29.34C290.174 29.34 290.534 29.204 290.798 28.932C291.07 28.66 291.206 28.3 291.206 27.852V24.048ZM296.916 23.868C297.18 23.868 297.408 23.92 297.6 24.024C297.664 24.056 297.688 24.108 297.672 24.18L297.54 24.768C297.516 24.848 297.464 24.872 297.384 24.84C297.248 24.784 297.092 24.756 296.916 24.756L296.76 24.768C296.344 24.784 296 24.94 295.728 25.236C295.456 25.524 295.32 25.892 295.32 26.34V29.88C295.32 29.96 295.28 30 295.2 30H294.588C294.508 30 294.468 29.96 294.468 29.88V24.048C294.468 23.968 294.508 23.928 294.588 23.928H295.2C295.28 23.928 295.32 23.968 295.32 24.048V24.78C295.32 24.804 295.324 24.82 295.332 24.828C295.348 24.828 295.36 24.82 295.368 24.804C295.536 24.508 295.748 24.28 296.004 24.12C296.268 23.952 296.572 23.868 296.916 23.868ZM301.572 30.096C300.996 30.096 300.5 29.948 300.084 29.652C299.676 29.348 299.396 28.94 299.244 28.428C299.14 28.076 299.088 27.58 299.088 26.94C299.088 26.364 299.14 25.876 299.244 25.476C299.388 24.98 299.668 24.584 300.084 24.288C300.5 23.984 300.996 23.832 301.572 23.832C302.156 23.832 302.66 23.98 303.084 24.276C303.516 24.572 303.796 24.94 303.924 25.38C303.964 25.524 303.988 25.644 303.996 25.74V25.764C303.996 25.82 303.96 25.856 303.888 25.872L303.288 25.956H303.264C303.208 25.956 303.172 25.92 303.156 25.848L303.12 25.668C303.048 25.364 302.872 25.108 302.592 24.9C302.312 24.684 301.972 24.576 301.572 24.576C301.172 24.576 300.836 24.684 300.564 24.9C300.3 25.108 300.128 25.388 300.048 25.74C299.976 26.044 299.94 26.448 299.94 26.952C299.94 27.48 299.976 27.888 300.048 28.176C300.128 28.536 300.3 28.824 300.564 29.04C300.836 29.248 301.172 29.352 301.572 29.352C301.964 29.352 302.3 29.252 302.58 29.052C302.868 28.844 303.048 28.58 303.12 28.26V28.212L303.132 28.164C303.14 28.084 303.188 28.052 303.276 28.068L303.864 28.164C303.944 28.18 303.98 28.224 303.972 28.296L303.924 28.536C303.804 29 303.528 29.376 303.096 29.664C302.664 29.952 302.156 30.096 301.572 30.096ZM310.636 25.944C310.668 26.168 310.684 26.448 310.684 26.784V27.168C310.684 27.248 310.644 27.288 310.564 27.288H306.688C306.656 27.288 306.64 27.304 306.64 27.336C306.656 27.776 306.68 28.06 306.712 28.188C306.8 28.548 306.988 28.832 307.276 29.04C307.564 29.248 307.932 29.352 308.38 29.352C308.716 29.352 309.012 29.276 309.268 29.124C309.524 28.972 309.724 28.756 309.868 28.476C309.916 28.404 309.972 28.388 310.036 28.428L310.504 28.704C310.568 28.744 310.584 28.8 310.552 28.872C310.352 29.256 310.052 29.56 309.652 29.784C309.252 30 308.792 30.108 308.272 30.108C307.704 30.1 307.228 29.964 306.844 29.7C306.46 29.436 306.184 29.068 306.016 28.596C305.872 28.212 305.8 27.66 305.8 26.94C305.8 26.604 305.804 26.332 305.812 26.124C305.828 25.908 305.86 25.716 305.908 25.548C306.044 25.028 306.316 24.612 306.724 24.3C307.14 23.988 307.64 23.832 308.224 23.832C308.952 23.832 309.512 24.016 309.904 24.384C310.296 24.752 310.54 25.272 310.636 25.944ZM308.224 24.576C307.832 24.576 307.504 24.68 307.24 24.888C306.984 25.088 306.816 25.36 306.736 25.704C306.688 25.872 306.656 26.144 306.64 26.52C306.64 26.552 306.656 26.568 306.688 26.568H309.796C309.828 26.568 309.844 26.552 309.844 26.52C309.828 26.16 309.804 25.904 309.772 25.752C309.684 25.392 309.504 25.108 309.232 24.9C308.968 24.684 308.632 24.576 308.224 24.576ZM314.765 30.06C314.317 30.06 313.917 29.988 313.565 29.844C313.221 29.7 312.953 29.508 312.761 29.268C312.577 29.028 312.485 28.76 312.485 28.464V28.32C312.485 28.24 312.525 28.2 312.604 28.2H313.181C313.261 28.2 313.301 28.24 313.301 28.32V28.416C313.301 28.68 313.437 28.912 313.709 29.112C313.989 29.304 314.337 29.4 314.753 29.4C315.169 29.4 315.505 29.308 315.761 29.124C316.017 28.932 316.145 28.692 316.145 28.404C316.145 28.204 316.077 28.04 315.941 27.912C315.813 27.784 315.657 27.684 315.473 27.612C315.297 27.54 315.021 27.448 314.645 27.336C314.197 27.208 313.829 27.08 313.541 26.952C313.253 26.824 313.009 26.648 312.809 26.424C312.617 26.192 312.521 25.9 312.521 25.548C312.521 25.036 312.721 24.628 313.121 24.324C313.521 24.02 314.049 23.868 314.705 23.868C315.145 23.868 315.533 23.94 315.869 24.084C316.213 24.228 316.477 24.428 316.661 24.684C316.845 24.932 316.937 25.212 316.937 25.524V25.56C316.937 25.64 316.897 25.68 316.817 25.68H316.253C316.173 25.68 316.133 25.64 316.133 25.56V25.524C316.133 25.252 316.001 25.024 315.737 24.84C315.481 24.656 315.133 24.564 314.693 24.564C314.285 24.564 313.957 24.648 313.709 24.816C313.461 24.976 313.337 25.2 313.337 25.488C313.337 25.76 313.457 25.968 313.697 26.112C313.937 26.256 314.309 26.4 314.812 26.544C315.277 26.68 315.653 26.808 315.941 26.928C316.229 27.048 316.477 27.224 316.685 27.456C316.893 27.68 316.997 27.976 316.997 28.344C316.997 28.864 316.793 29.28 316.385 29.592C315.977 29.904 315.437 30.06 314.765 30.06ZM21.616 43.944C21.648 44.168 21.664 44.448 21.664 44.784V45.168C21.664 45.248 21.624 45.288 21.544 45.288H17.668C17.636 45.288 17.62 45.304 17.62 45.336C17.636 45.776 17.66 46.06 17.692 46.188C17.78 46.548 17.968 46.832 18.256 47.04C18.544 47.248 18.912 47.352 19.36 47.352C19.696 47.352 19.992 47.276 20.248 47.124C20.504 46.972 20.704 46.756 20.848 46.476C20.896 46.404 20.952 46.388 21.016 46.428L21.484 46.704C21.548 46.744 21.564 46.8 21.532 46.872C21.332 47.256 21.032 47.56 20.632 47.784C20.232 48 19.772 48.108 19.252 48.108C18.684 48.1 18.208 47.964 17.824 47.7C17.44 47.436 17.164 47.068 16.996 46.596C16.852 46.212 16.78 45.66 16.78 44.94C16.78 44.604 16.784 44.332 16.792 44.124C16.808 43.908 16.84 43.716 16.888 43.548C17.024 43.028 17.296 42.612 17.704 42.3C18.12 41.988 18.62 41.832 19.204 41.832C19.932 41.832 20.492 42.016 20.884 42.384C21.276 42.752 21.52 43.272 21.616 43.944ZM19.204 42.576C18.812 42.576 18.484 42.68 18.22 42.888C17.964 43.088 17.796 43.36 17.716 43.704C17.668 43.872 17.636 44.144 17.62 44.52C17.62 44.552 17.636 44.568 17.668 44.568H20.776C20.808 44.568 20.824 44.552 20.824 44.52C20.808 44.16 20.784 43.904 20.752 43.752C20.664 43.392 20.484 43.108 20.212 42.9C19.948 42.684 19.612 42.576 19.204 42.576ZM26.1764 40.344C25.7364 40.344 25.4364 40.444 25.2764 40.644C25.1164 40.836 25.0364 41.168 25.0364 41.64V41.88C25.0364 41.912 25.0524 41.928 25.0844 41.928H26.4284C26.5084 41.928 26.5484 41.968 26.5484 42.048V42.588C26.5484 42.668 26.5084 42.708 26.4284 42.708H25.0844C25.0524 42.708 25.0364 42.724 25.0364 42.756V47.88C25.0364 47.96 24.9964 48 24.9164 48H24.3164C24.2364 48 24.1964 47.96 24.1964 47.88V42.756C24.1964 42.724 24.1804 42.708 24.1484 42.708H23.3444C23.2644 42.708 23.2244 42.668 23.2244 42.588V42.048C23.2244 41.968 23.2644 41.928 23.3444 41.928H24.1484C24.1804 41.928 24.1964 41.912 24.1964 41.88V41.592C24.1964 41.096 24.2524 40.708 24.3644 40.428C24.4764 40.14 24.6684 39.932 24.9404 39.804C25.2204 39.668 25.6084 39.6 26.1044 39.6H26.4524C26.5324 39.6 26.5724 39.64 26.5724 39.72V40.224C26.5724 40.304 26.5324 40.344 26.4524 40.344H26.1764ZM30.9538 40.344C30.5138 40.344 30.2138 40.444 30.0538 40.644C29.8938 40.836 29.8138 41.168 29.8138 41.64V41.88C29.8138 41.912 29.8298 41.928 29.8618 41.928H31.2058C31.2858 41.928 31.3258 41.968 31.3258 42.048V42.588C31.3258 42.668 31.2858 42.708 31.2058 42.708H29.8618C29.8298 42.708 29.8138 42.724 29.8138 42.756V47.88C29.8138 47.96 29.7738 48 29.6938 48H29.0938C29.0138 48 28.9738 47.96 28.9738 47.88V42.756C28.9738 42.724 28.9578 42.708 28.9258 42.708H28.1218C28.0418 42.708 28.0018 42.668 28.0018 42.588V42.048C28.0018 41.968 28.0418 41.928 28.1218 41.928H28.9258C28.9578 41.928 28.9738 41.912 28.9738 41.88V41.592C28.9738 41.096 29.0298 40.708 29.1418 40.428C29.2538 40.14 29.4458 39.932 29.7178 39.804C29.9978 39.668 30.3858 39.6 30.8818 39.6H31.2298C31.3098 39.6 31.3498 39.64 31.3498 39.72V40.224C31.3498 40.304 31.3098 40.344 31.2298 40.344H30.9538ZM37.4246 43.944C37.4566 44.168 37.4726 44.448 37.4726 44.784V45.168C37.4726 45.248 37.4326 45.288 37.3526 45.288H33.4766C33.4446 45.288 33.4286 45.304 33.4286 45.336C33.4446 45.776 33.4686 46.06 33.5006 46.188C33.5886 46.548 33.7766 46.832 34.0646 47.04C34.3526 47.248 34.7206 47.352 35.1686 47.352C35.5046 47.352 35.8006 47.276 36.0566 47.124C36.3126 46.972 36.5126 46.756 36.6566 46.476C36.7046 46.404 36.7606 46.388 36.8246 46.428L37.2926 46.704C37.3566 46.744 37.3726 46.8 37.3406 46.872C37.1406 47.256 36.8406 47.56 36.4406 47.784C36.0406 48 35.5806 48.108 35.0606 48.108C34.4926 48.1 34.0166 47.964 33.6326 47.7C33.2486 47.436 32.9726 47.068 32.8046 46.596C32.6606 46.212 32.5886 45.66 32.5886 44.94C32.5886 44.604 32.5926 44.332 32.6006 44.124C32.6166 43.908 32.6486 43.716 32.6966 43.548C32.8326 43.028 33.1046 42.612 33.5126 42.3C33.9286 41.988 34.4286 41.832 35.0126 41.832C35.7406 41.832 36.3006 42.016 36.6926 42.384C37.0846 42.752 37.3286 43.272 37.4246 43.944ZM35.0126 42.576C34.6206 42.576 34.2926 42.68 34.0286 42.888C33.7726 43.088 33.6046 43.36 33.5246 43.704C33.4766 43.872 33.4446 44.144 33.4286 44.52C33.4286 44.552 33.4446 44.568 33.4766 44.568H36.5846C36.6166 44.568 36.6326 44.552 36.6326 44.52C36.6166 44.16 36.5926 43.904 36.5606 43.752C36.4726 43.392 36.2926 43.108 36.0206 42.9C35.7566 42.684 35.4206 42.576 35.0126 42.576ZM41.959 48.096C41.383 48.096 40.887 47.948 40.471 47.652C40.063 47.348 39.783 46.94 39.631 46.428C39.527 46.076 39.475 45.58 39.475 44.94C39.475 44.364 39.527 43.876 39.631 43.476C39.775 42.98 40.055 42.584 40.471 42.288C40.887 41.984 41.383 41.832 41.959 41.832C42.543 41.832 43.047 41.98 43.471 42.276C43.903 42.572 44.183 42.94 44.311 43.38C44.351 43.524 44.375 43.644 44.383 43.74V43.764C44.383 43.82 44.347 43.856 44.275 43.872L43.675 43.956H43.651C43.595 43.956 43.559 43.92 43.543 43.848L43.507 43.668C43.435 43.364 43.259 43.108 42.979 42.9C42.699 42.684 42.359 42.576 41.959 42.576C41.559 42.576 41.223 42.684 40.951 42.9C40.687 43.108 40.515 43.388 40.435 43.74C40.363 44.044 40.327 44.448 40.327 44.952C40.327 45.48 40.363 45.888 40.435 46.176C40.515 46.536 40.687 46.824 40.951 47.04C41.223 47.248 41.559 47.352 41.959 47.352C42.351 47.352 42.687 47.252 42.967 47.052C43.255 46.844 43.435 46.58 43.507 46.26V46.212L43.519 46.164C43.527 46.084 43.575 46.052 43.663 46.068L44.251 46.164C44.331 46.18 44.367 46.224 44.359 46.296L44.311 46.536C44.191 47 43.915 47.376 43.483 47.664C43.051 47.952 42.543 48.096 41.959 48.096ZM49.1254 42.516C49.1254 42.596 49.0854 42.636 49.0054 42.636H47.6494C47.6174 42.636 47.6014 42.652 47.6014 42.684V46.224C47.6014 46.608 47.6854 46.88 47.8534 47.04C48.0294 47.192 48.3014 47.268 48.6694 47.268H48.9694C49.0494 47.268 49.0894 47.308 49.0894 47.388V47.88C49.0894 47.96 49.0494 48 48.9694 48C48.8734 48.008 48.7254 48.012 48.5254 48.012C47.9494 48.012 47.5134 47.904 47.2174 47.688C46.9214 47.472 46.7734 47.072 46.7734 46.488V42.684C46.7734 42.652 46.7574 42.636 46.7254 42.636H45.9934C45.9134 42.636 45.8734 42.596 45.8734 42.516V42.048C45.8734 41.968 45.9134 41.928 45.9934 41.928H46.7254C46.7574 41.928 46.7734 41.912 46.7734 41.88V40.488C46.7734 40.408 46.8134 40.368 46.8934 40.368H47.4814C47.5614 40.368 47.6014 40.408 47.6014 40.488V41.88C47.6014 41.912 47.6174 41.928 47.6494 41.928H49.0054C49.0854 41.928 49.1254 41.968 49.1254 42.048V42.516ZM51.8485 40.824C51.6565 40.824 51.4965 40.76 51.3685 40.632C51.2405 40.504 51.1765 40.344 51.1765 40.152C51.1765 39.952 51.2405 39.792 51.3685 39.672C51.4965 39.544 51.6565 39.48 51.8485 39.48C52.0405 39.48 52.2005 39.544 52.3285 39.672C52.4565 39.792 52.5205 39.952 52.5205 40.152C52.5205 40.344 52.4565 40.504 52.3285 40.632C52.2005 40.76 52.0405 40.824 51.8485 40.824ZM51.5125 47.988C51.4325 47.988 51.3925 47.948 51.3925 47.868V42.036C51.3925 41.956 51.4325 41.916 51.5125 41.916H52.1245C52.2045 41.916 52.2445 41.956 52.2445 42.036V47.868C52.2445 47.948 52.2045 47.988 52.1245 47.988H51.5125ZM56.3791 48C56.3071 48 56.2591 47.968 56.2351 47.904L54.2671 42.06L54.2551 42.012C54.2551 41.956 54.2911 41.928 54.3631 41.928H55.0471C55.1191 41.928 55.1671 41.96 55.1911 42.024L56.6911 46.728C56.6991 46.744 56.7111 46.752 56.7271 46.752C56.7431 46.752 56.7551 46.744 56.7631 46.728L58.2631 42.024C58.2871 41.96 58.3351 41.928 58.4071 41.928L59.0911 41.94C59.1791 41.94 59.2111 41.984 59.1871 42.072L57.2191 47.904C57.1951 47.968 57.1471 48 57.0751 48H56.3791ZM65.4832 43.944C65.5152 44.168 65.5312 44.448 65.5312 44.784V45.168C65.5312 45.248 65.4912 45.288 65.4112 45.288H61.5352C61.5032 45.288 61.4872 45.304 61.4872 45.336C61.5032 45.776 61.5272 46.06 61.5592 46.188C61.6472 46.548 61.8352 46.832 62.1232 47.04C62.4112 47.248 62.7792 47.352 63.2272 47.352C63.5632 47.352 63.8592 47.276 64.1152 47.124C64.3712 46.972 64.5712 46.756 64.7152 46.476C64.7632 46.404 64.8192 46.388 64.8832 46.428L65.3512 46.704C65.4152 46.744 65.4312 46.8 65.3992 46.872C65.1992 47.256 64.8992 47.56 64.4992 47.784C64.0992 48 63.6392 48.108 63.1192 48.108C62.5512 48.1 62.0752 47.964 61.6912 47.7C61.3072 47.436 61.0312 47.068 60.8632 46.596C60.7192 46.212 60.6472 45.66 60.6472 44.94C60.6472 44.604 60.6512 44.332 60.6592 44.124C60.6752 43.908 60.7072 43.716 60.7552 43.548C60.8912 43.028 61.1632 42.612 61.5712 42.3C61.9872 41.988 62.4872 41.832 63.0712 41.832C63.7992 41.832 64.3592 42.016 64.7512 42.384C65.1432 42.752 65.3872 43.272 65.4832 43.944ZM63.0712 42.576C62.6792 42.576 62.3512 42.68 62.0872 42.888C61.8312 43.088 61.6632 43.36 61.5832 43.704C61.5352 43.872 61.5032 44.144 61.4872 44.52C61.4872 44.552 61.5032 44.568 61.5352 44.568H64.6432C64.6752 44.568 64.6912 44.552 64.6912 44.52C64.6752 44.16 64.6512 43.904 64.6192 43.752C64.5312 43.392 64.3512 43.108 64.0792 42.9C63.8152 42.684 63.4792 42.576 63.0712 42.576ZM67.8456 48C67.7656 48 67.7256 47.96 67.7256 47.88V39.72C67.7256 39.64 67.7656 39.6 67.8456 39.6H68.4576C68.5376 39.6 68.5776 39.64 68.5776 39.72V47.88C68.5776 47.96 68.5376 48 68.4576 48H67.8456ZM70.7153 50.4C70.6593 50.4 70.6313 50.36 70.6313 50.28V49.8C70.6313 49.72 70.6713 49.68 70.7513 49.68H70.7993C71.1113 49.672 71.3513 49.624 71.5193 49.536C71.6953 49.456 71.8433 49.3 71.9633 49.068C72.0913 48.844 72.2273 48.5 72.3713 48.036C72.3873 48.004 72.3873 47.98 72.3713 47.964L70.3433 42.06L70.3313 42.012C70.3313 41.956 70.3673 41.928 70.4393 41.928H71.0753C71.1473 41.928 71.1953 41.96 71.2193 42.024L72.7793 46.872C72.7873 46.888 72.7993 46.896 72.8153 46.896C72.8313 46.896 72.8433 46.888 72.8513 46.872L74.3873 42.024C74.4113 41.96 74.4593 41.928 74.5313 41.928H75.1553C75.2433 41.928 75.2753 41.972 75.2513 42.06L73.0312 48.528C72.8393 49.064 72.6593 49.46 72.4913 49.716C72.3233 49.972 72.1113 50.148 71.8553 50.244C71.6073 50.348 71.2553 50.4 70.7993 50.4H70.7153ZM82.0248 41.832C82.7448 41.832 83.3008 42.016 83.6928 42.384C84.0848 42.752 84.2808 43.24 84.2808 43.848V47.88C84.2808 47.96 84.2408 48 84.1608 48H83.5488C83.4688 48 83.4288 47.96 83.4288 47.88V47.388C83.4288 47.372 83.4208 47.36 83.4048 47.352C83.3968 47.344 83.3848 47.348 83.3688 47.364C83.1688 47.604 82.9088 47.788 82.5888 47.916C82.2688 48.036 81.9128 48.096 81.5208 48.096C80.9528 48.096 80.4768 47.952 80.0928 47.664C79.7088 47.376 79.5168 46.936 79.5168 46.344C79.5168 45.744 79.7328 45.272 80.1648 44.928C80.6048 44.576 81.2128 44.4 81.9888 44.4H83.3808C83.4128 44.4 83.4288 44.384 83.4288 44.352V43.896C83.4288 43.488 83.3128 43.168 83.0808 42.936C82.8568 42.696 82.5048 42.576 82.0248 42.576C81.6408 42.576 81.3288 42.652 81.0888 42.804C80.8488 42.948 80.7008 43.152 80.6448 43.416C80.6208 43.496 80.5728 43.532 80.5008 43.524L79.8528 43.44C79.7648 43.424 79.7288 43.392 79.7448 43.344C79.8088 42.896 80.0488 42.532 80.4648 42.252C80.8808 41.972 81.4008 41.832 82.0248 41.832ZM81.6888 47.364C82.1608 47.364 82.5688 47.248 82.9128 47.016C83.2568 46.776 83.4288 46.456 83.4288 46.056V45.12C83.4288 45.088 83.4128 45.072 83.3808 45.072H82.1208C81.5928 45.072 81.1688 45.18 80.8488 45.396C80.5288 45.612 80.3688 45.912 80.3688 46.296C80.3688 46.648 80.4888 46.916 80.7288 47.1C80.9768 47.276 81.2968 47.364 81.6888 47.364ZM89.0738 41.844C89.7138 41.844 90.2218 42.032 90.5978 42.408C90.9818 42.784 91.1738 43.288 91.1738 43.92V47.88C91.1738 47.96 91.1338 48 91.0538 48H90.4418C90.3618 48 90.3218 47.96 90.3218 47.88V44.088C90.3218 43.648 90.1858 43.288 89.9138 43.008C89.6498 42.728 89.3058 42.588 88.8818 42.588C88.4418 42.588 88.0858 42.724 87.8138 42.996C87.5418 43.268 87.4058 43.624 87.4058 44.064V47.88C87.4058 47.96 87.3658 48 87.2858 48H86.6738C86.5938 48 86.5538 47.96 86.5538 47.88V42.048C86.5538 41.968 86.5938 41.928 86.6738 41.928H87.2858C87.3658 41.928 87.4058 41.968 87.4058 42.048V42.564C87.4058 42.58 87.4098 42.592 87.4178 42.6C87.4338 42.608 87.4458 42.604 87.4538 42.588C87.8058 42.092 88.3458 41.844 89.0738 41.844ZM97.2085 39.72C97.2085 39.64 97.2485 39.6 97.3285 39.6H97.9405C98.0205 39.6 98.0605 39.64 98.0605 39.72V47.88C98.0605 47.96 98.0205 48 97.9405 48H97.3285C97.2485 48 97.2085 47.96 97.2085 47.88V47.376C97.2085 47.36 97.2005 47.352 97.1845 47.352C97.1765 47.344 97.1645 47.348 97.1485 47.364C96.9725 47.596 96.7525 47.776 96.4885 47.904C96.2325 48.032 95.9445 48.096 95.6245 48.096C95.0645 48.096 94.5925 47.952 94.2085 47.664C93.8325 47.376 93.5725 46.984 93.4285 46.488C93.3165 46.128 93.2605 45.62 93.2605 44.964C93.2605 44.3 93.3085 43.804 93.4045 43.476C93.5485 42.964 93.8125 42.564 94.1965 42.276C94.5805 41.98 95.0565 41.832 95.6245 41.832C95.9365 41.832 96.2245 41.896 96.4885 42.024C96.7525 42.144 96.9725 42.32 97.1485 42.552C97.1645 42.568 97.1765 42.576 97.1845 42.576C97.2005 42.568 97.2085 42.556 97.2085 42.54V39.72ZM96.9925 46.428C97.0645 46.268 97.1165 46.08 97.1485 45.864C97.1805 45.648 97.1965 45.348 97.1965 44.964C97.1965 44.58 97.1805 44.28 97.1485 44.064C97.1165 43.84 97.0605 43.644 96.9805 43.476C96.8845 43.204 96.7245 42.988 96.5005 42.828C96.2845 42.66 96.0245 42.576 95.7205 42.576C95.4005 42.576 95.1245 42.656 94.8925 42.816C94.6605 42.976 94.4925 43.188 94.3885 43.452C94.2925 43.628 94.2205 43.828 94.1725 44.052C94.1325 44.268 94.1125 44.572 94.1125 44.964C94.1125 45.34 94.1285 45.636 94.1605 45.852C94.1925 46.06 94.2485 46.248 94.3285 46.416C94.4245 46.704 94.5925 46.932 94.8325 47.1C95.0805 47.268 95.3725 47.352 95.7085 47.352C96.0285 47.352 96.2965 47.268 96.5125 47.1C96.7285 46.932 96.8885 46.708 96.9925 46.428ZM108.05 43.944C108.082 44.168 108.098 44.448 108.098 44.784V45.168C108.098 45.248 108.058 45.288 107.978 45.288H104.102C104.07 45.288 104.054 45.304 104.054 45.336C104.07 45.776 104.094 46.06 104.126 46.188C104.214 46.548 104.402 46.832 104.69 47.04C104.978 47.248 105.346 47.352 105.794 47.352C106.13 47.352 106.426 47.276 106.682 47.124C106.938 46.972 107.138 46.756 107.282 46.476C107.33 46.404 107.386 46.388 107.45 46.428L107.918 46.704C107.982 46.744 107.998 46.8 107.966 46.872C107.766 47.256 107.466 47.56 107.066 47.784C106.666 48 106.206 48.108 105.686 48.108C105.118 48.1 104.642 47.964 104.258 47.7C103.874 47.436 103.598 47.068 103.43 46.596C103.286 46.212 103.214 45.66 103.214 44.94C103.214 44.604 103.218 44.332 103.226 44.124C103.242 43.908 103.274 43.716 103.322 43.548C103.458 43.028 103.73 42.612 104.138 42.3C104.554 41.988 105.054 41.832 105.638 41.832C106.366 41.832 106.926 42.016 107.318 42.384C107.71 42.752 107.954 43.272 108.05 43.944ZM105.638 42.576C105.246 42.576 104.918 42.68 104.654 42.888C104.398 43.088 104.23 43.36 104.15 43.704C104.102 43.872 104.07 44.144 104.054 44.52C104.054 44.552 104.07 44.568 104.102 44.568H107.21C107.242 44.568 107.258 44.552 107.258 44.52C107.242 44.16 107.218 43.904 107.186 43.752C107.098 43.392 106.918 43.108 106.646 42.9C106.382 42.684 106.046 42.576 105.638 42.576ZM118.994 39.48C119.186 39.48 119.346 39.544 119.474 39.672C119.602 39.792 119.666 39.952 119.666 40.152C119.666 40.344 119.602 40.504 119.474 40.632C119.346 40.76 119.186 40.824 118.994 40.824C118.794 40.824 118.63 40.76 118.502 40.632C118.382 40.504 118.322 40.344 118.322 40.152C118.322 39.952 118.382 39.792 118.502 39.672C118.63 39.544 118.794 39.48 118.994 39.48ZM111.422 41.88C111.422 41.912 111.438 41.928 111.47 41.928H112.97C113.05 41.928 113.09 41.968 113.09 42.048V42.516C113.09 42.596 113.05 42.636 112.97 42.636H111.47C111.438 42.636 111.422 42.652 111.422 42.684V47.88C111.422 47.96 111.382 48 111.302 48H110.702C110.622 48 110.582 47.96 110.582 47.88V42.684C110.582 42.652 110.566 42.636 110.534 42.636H109.778C109.698 42.636 109.658 42.596 109.658 42.516V42.048C109.658 41.968 109.698 41.928 109.778 41.928H110.534C110.566 41.928 110.582 41.912 110.582 41.88V41.46C110.582 40.812 110.722 40.34 111.002 40.044C111.29 39.74 111.794 39.592 112.514 39.6H112.862C112.942 39.6 112.982 39.64 112.982 39.72V40.104C112.982 40.184 112.942 40.224 112.862 40.224H112.514C112.09 40.232 111.802 40.34 111.65 40.548C111.498 40.756 111.422 41.08 111.422 41.52V41.88ZM114.602 41.46C114.602 40.812 114.746 40.34 115.034 40.044C115.322 39.74 115.826 39.592 116.546 39.6H116.894C116.974 39.6 117.014 39.64 117.014 39.72V40.104C117.014 40.184 116.974 40.224 116.894 40.224H116.546C116.122 40.232 115.834 40.34 115.682 40.548C115.53 40.756 115.454 41.08 115.454 41.52V41.88C115.454 41.912 115.47 41.928 115.502 41.928H116.894C116.974 41.928 117.014 41.968 117.014 42.048V42.516C117.014 42.596 116.974 42.636 116.894 42.636H115.502C115.47 42.636 115.454 42.652 115.454 42.684V47.88C115.454 47.96 115.414 48 115.334 48H114.722C114.642 48 114.602 47.96 114.602 47.88V42.684C114.602 42.652 114.586 42.636 114.554 42.636H113.45C113.37 42.636 113.33 42.596 113.33 42.516V42.048C113.33 41.968 113.37 41.928 113.45 41.928H114.554C114.586 41.928 114.602 41.912 114.602 41.88V41.46ZM118.658 47.988C118.578 47.988 118.538 47.948 118.538 47.868V42.036C118.538 41.956 118.578 41.916 118.658 41.916H119.27C119.35 41.916 119.39 41.956 119.39 42.036V47.868C119.39 47.948 119.35 47.988 119.27 47.988H118.658ZM124.275 48.096C123.699 48.096 123.203 47.948 122.787 47.652C122.379 47.348 122.099 46.94 121.947 46.428C121.843 46.076 121.791 45.58 121.791 44.94C121.791 44.364 121.843 43.876 121.947 43.476C122.091 42.98 122.371 42.584 122.787 42.288C123.203 41.984 123.699 41.832 124.275 41.832C124.859 41.832 125.363 41.98 125.787 42.276C126.219 42.572 126.499 42.94 126.627 43.38C126.667 43.524 126.691 43.644 126.699 43.74V43.764C126.699 43.82 126.663 43.856 126.591 43.872L125.991 43.956H125.967C125.911 43.956 125.875 43.92 125.859 43.848L125.823 43.668C125.751 43.364 125.575 43.108 125.295 42.9C125.015 42.684 124.675 42.576 124.275 42.576C123.875 42.576 123.539 42.684 123.267 42.9C123.003 43.108 122.831 43.388 122.751 43.74C122.679 44.044 122.643 44.448 122.643 44.952C122.643 45.48 122.679 45.888 122.751 46.176C122.831 46.536 123.003 46.824 123.267 47.04C123.539 47.248 123.875 47.352 124.275 47.352C124.667 47.352 125.003 47.252 125.283 47.052C125.571 46.844 125.751 46.58 125.823 46.26V46.212L125.835 46.164C125.843 46.084 125.891 46.052 125.979 46.068L126.567 46.164C126.647 46.18 126.683 46.224 126.675 46.296L126.627 46.536C126.507 47 126.231 47.376 125.799 47.664C125.367 47.952 124.859 48.096 124.275 48.096ZM129.294 40.824C129.102 40.824 128.942 40.76 128.814 40.632C128.686 40.504 128.622 40.344 128.622 40.152C128.622 39.952 128.686 39.792 128.814 39.672C128.942 39.544 129.102 39.48 129.294 39.48C129.486 39.48 129.646 39.544 129.774 39.672C129.902 39.792 129.966 39.952 129.966 40.152C129.966 40.344 129.902 40.504 129.774 40.632C129.646 40.76 129.486 40.824 129.294 40.824ZM128.958 47.988C128.878 47.988 128.838 47.948 128.838 47.868V42.036C128.838 41.956 128.878 41.916 128.958 41.916H129.57C129.65 41.916 129.69 41.956 129.69 42.036V47.868C129.69 47.948 129.65 47.988 129.57 47.988H128.958ZM136.932 43.944C136.964 44.168 136.98 44.448 136.98 44.784V45.168C136.98 45.248 136.94 45.288 136.86 45.288H132.984C132.952 45.288 132.936 45.304 132.936 45.336C132.952 45.776 132.976 46.06 133.008 46.188C133.096 46.548 133.284 46.832 133.572 47.04C133.86 47.248 134.228 47.352 134.676 47.352C135.012 47.352 135.308 47.276 135.564 47.124C135.82 46.972 136.02 46.756 136.164 46.476C136.212 46.404 136.268 46.388 136.332 46.428L136.8 46.704C136.864 46.744 136.88 46.8 136.848 46.872C136.648 47.256 136.348 47.56 135.948 47.784C135.548 48 135.088 48.108 134.568 48.108C134 48.1 133.524 47.964 133.14 47.7C132.756 47.436 132.48 47.068 132.312 46.596C132.168 46.212 132.096 45.66 132.096 44.94C132.096 44.604 132.1 44.332 132.108 44.124C132.124 43.908 132.156 43.716 132.204 43.548C132.34 43.028 132.612 42.612 133.02 42.3C133.436 41.988 133.936 41.832 134.52 41.832C135.248 41.832 135.808 42.016 136.2 42.384C136.592 42.752 136.836 43.272 136.932 43.944ZM134.52 42.576C134.128 42.576 133.8 42.68 133.536 42.888C133.28 43.088 133.112 43.36 133.032 43.704C132.984 43.872 132.952 44.144 132.936 44.52C132.936 44.552 132.952 44.568 132.984 44.568H136.092C136.124 44.568 136.14 44.552 136.14 44.52C136.124 44.16 136.1 43.904 136.068 43.752C135.98 43.392 135.8 43.108 135.528 42.9C135.264 42.684 134.928 42.576 134.52 42.576ZM141.695 41.844C142.335 41.844 142.843 42.032 143.219 42.408C143.603 42.784 143.795 43.288 143.795 43.92V47.88C143.795 47.96 143.755 48 143.675 48H143.063C142.983 48 142.943 47.96 142.943 47.88V44.088C142.943 43.648 142.807 43.288 142.535 43.008C142.271 42.728 141.927 42.588 141.503 42.588C141.063 42.588 140.707 42.724 140.435 42.996C140.163 43.268 140.027 43.624 140.027 44.064V47.88C140.027 47.96 139.987 48 139.907 48H139.295C139.215 48 139.175 47.96 139.175 47.88V42.048C139.175 41.968 139.215 41.928 139.295 41.928H139.907C139.987 41.928 140.027 41.968 140.027 42.048V42.564C140.027 42.58 140.031 42.592 140.039 42.6C140.055 42.608 140.067 42.604 140.075 42.588C140.427 42.092 140.967 41.844 141.695 41.844ZM148.868 42.516C148.868 42.596 148.828 42.636 148.748 42.636H147.392C147.36 42.636 147.344 42.652 147.344 42.684V46.224C147.344 46.608 147.428 46.88 147.596 47.04C147.772 47.192 148.044 47.268 148.412 47.268H148.712C148.792 47.268 148.832 47.308 148.832 47.388V47.88C148.832 47.96 148.792 48 148.712 48C148.616 48.008 148.468 48.012 148.268 48.012C147.692 48.012 147.256 47.904 146.96 47.688C146.664 47.472 146.516 47.072 146.516 46.488V42.684C146.516 42.652 146.5 42.636 146.468 42.636H145.736C145.656 42.636 145.616 42.596 145.616 42.516V42.048C145.616 41.968 145.656 41.928 145.736 41.928H146.468C146.5 41.928 146.516 41.912 146.516 41.88V40.488C146.516 40.408 146.556 40.368 146.636 40.368H147.224C147.304 40.368 147.344 40.408 147.344 40.488V41.88C147.344 41.912 147.36 41.928 147.392 41.928H148.748C148.828 41.928 148.868 41.968 148.868 42.048V42.516ZM151.135 48C151.055 48 151.015 47.96 151.015 47.88V39.72C151.015 39.64 151.055 39.6 151.135 39.6H151.747C151.827 39.6 151.867 39.64 151.867 39.72V47.88C151.867 47.96 151.827 48 151.747 48H151.135ZM154.004 50.4C153.948 50.4 153.92 50.36 153.92 50.28V49.8C153.92 49.72 153.96 49.68 154.04 49.68H154.088C154.4 49.672 154.64 49.624 154.808 49.536C154.984 49.456 155.132 49.3 155.252 49.068C155.38 48.844 155.516 48.5 155.66 48.036C155.676 48.004 155.676 47.98 155.66 47.964L153.632 42.06L153.62 42.012C153.62 41.956 153.656 41.928 153.728 41.928H154.364C154.436 41.928 154.484 41.96 154.508 42.024L156.068 46.872C156.076 46.888 156.088 46.896 156.104 46.896C156.12 46.896 156.132 46.888 156.14 46.872L157.676 42.024C157.7 41.96 157.748 41.928 157.82 41.928H158.444C158.532 41.928 158.564 41.972 158.54 42.06L156.32 48.528C156.128 49.064 155.948 49.46 155.78 49.716C155.612 49.972 155.4 50.148 155.144 50.244C154.896 50.348 154.544 50.4 154.088 50.4H154.004ZM160.48 47.976C160.28 47.976 160.116 47.912 159.988 47.784C159.868 47.656 159.808 47.496 159.808 47.304C159.808 47.104 159.868 46.944 159.988 46.824C160.116 46.696 160.28 46.632 160.48 46.632C160.672 46.632 160.832 46.696 160.96 46.824C161.088 46.944 161.152 47.104 161.152 47.304C161.152 47.496 161.088 47.656 160.96 47.784C160.832 47.912 160.672 47.976 160.48 47.976Z" fill="#F2F3F4"/>
</g>
<g opacity="0.15">
<g clip-path="url(#clip1)">
<path d="M407.256 30.3713L376.409 38.6366L371.277 47.5258L378.933 76.0982C382.647 76.4854 386.202 79.3382 388.18 83.5721L419.278 75.2394L424.41 66.3502L416.145 35.5034L407.256 30.3713Z" fill="#A3825D"/>
<path d="M394.086 42.9163C387.901 44.5735 384.555 52.2116 386.626 59.9432C388.698 67.6747 395.415 72.6161 401.6 70.9589C407.785 69.3018 411.132 61.6635 409.06 53.932C406.989 46.2004 400.271 41.2592 394.086 42.9163ZM389.431 59.1918C387.793 53.08 390.145 47.1144 394.678 45.7752C394.691 46.6258 394.473 47.2911 394.214 48.0576C393.776 49.3474 393.234 50.9515 393.911 53.4785C394.588 56.0061 395.86 57.1248 396.884 58.0258C397.798 58.8282 398.52 59.4625 398.97 61.1426C399.42 62.8206 399.112 63.7315 398.722 64.8831C398.414 65.7927 398.063 66.8649 398.113 68.2984C394.348 67.7444 390.765 64.1718 389.431 59.1918ZM401.007 68.1005C400.993 67.2471 401.212 66.5817 401.472 65.8148C401.909 64.5237 402.452 62.9189 401.774 60.3912C401.097 57.8628 399.825 56.7449 398.801 55.8438C397.886 55.0417 397.165 54.4065 396.715 52.7271C396.266 51.0497 396.573 50.1397 396.964 48.9879C397.27 48.0803 397.622 47.0079 397.571 45.5759C401.339 46.1308 404.922 49.7034 406.256 54.6834C407.894 60.7951 405.539 66.7613 401.007 68.1005Z" fill="#F2F3F4"/>
<path d="M418.546 10.8148L417.795 8.01053C417.173 5.69168 414.78 4.30991 412.461 4.93125L391.429 10.5667L392.181 13.371L413.213 7.7355C413.986 7.52821 414.784 7.98967 414.99 8.76193L415.742 11.5662C415.949 12.3385 415.489 13.1367 414.715 13.344L393.684 18.9795L394.435 21.7838L411.912 17.1007L418.861 23.2084L431.521 70.4556C432.557 74.321 430.254 78.3089 426.389 79.3447L391.11 88.7977C391.014 87.8525 390.842 86.8934 390.584 85.9329C388.513 78.2014 381.795 73.2601 375.61 74.9172C375.132 75.0455 374.679 75.2212 374.235 75.4178C374.224 75.376 374.22 75.3347 374.208 75.2929C373.55 72.8378 372.421 70.6668 370.992 68.8962L362.776 38.2363L365.74 29.4726L383.218 24.7893L382.466 21.9851L361.435 27.6206C360.66 27.8281 359.864 27.3664 359.657 26.5941L358.905 23.7899C358.698 23.0176 359.157 22.2195 359.932 22.0121L380.964 16.3766L380.212 13.5723L359.18 19.2078C356.861 19.8293 355.48 22.2224 356.101 24.5413L356.852 27.3455C357.474 29.6644 359.866 31.0463 362.186 30.4248L362.371 30.3753L359.744 38.1374L367.074 65.4919C364.634 64.0764 361.885 63.5669 359.234 64.2772C353.049 65.9345 349.703 73.5725 351.774 81.3041C352.25 83.078 352.981 84.7195 353.925 86.2099C353.025 87.1784 352.215 88.2657 351.527 89.4581C347.553 96.3419 348.801 104.528 354.309 107.708C356.61 109.038 359.332 109.336 362.105 108.593C362.62 108.455 363.137 108.282 363.653 108.072C366.824 106.784 369.613 104.267 371.503 100.992C371.802 100.474 372.054 99.9347 372.299 99.3907C375.304 102.49 379.313 103.981 383.124 102.96C387.714 101.73 390.734 97.2042 391.143 91.7944L427.14 82.1489C432.551 80.6992 435.775 75.1148 434.325 69.7042L421.438 21.6067L415.281 16.198L415.467 16.1483C417.786 15.5269 419.167 13.1336 418.546 10.8148ZM371.404 76.0443C371.5 76.4017 371.568 76.7576 371.636 77.1136C370.235 78.3864 369.155 80.0714 368.455 82.0069C368.413 81.7974 368.383 81.5935 368.324 81.3764C367.647 78.8481 366.375 77.7301 365.351 76.8291C364.437 76.0269 363.715 75.3917 363.265 73.7123C362.816 72.035 363.123 71.1263 363.514 69.9745C363.767 69.2258 364.049 68.3659 364.115 67.2871C367.344 68.4096 370.236 71.6839 371.404 76.0443ZM354.579 80.5527C352.921 74.3677 355.346 68.3247 359.986 67.0815C360.398 66.9711 360.815 66.9166 361.233 66.8867C361.223 67.6803 361.012 68.3138 360.764 69.0442C360.327 70.334 359.784 71.9367 360.461 74.4637C361.138 76.9914 362.41 78.1101 363.435 79.0111C364.238 79.7181 364.894 80.2968 365.347 81.5718C363.444 81.2878 361.407 81.5525 359.377 82.3775C358.231 82.8438 357.137 83.4737 356.116 84.239C355.452 83.1077 354.933 81.8761 354.579 80.5527ZM354.041 90.9095C355.612 88.1898 357.896 86.1138 360.471 85.068C362.851 84.0963 365.192 84.1442 367.099 85.1719C366.527 85.7353 365.924 86.035 365.228 86.3791C364.008 86.9828 362.49 87.7337 361.181 90.0002C359.872 92.2654 359.982 93.9583 360.069 95.318C360.148 96.5305 360.21 97.4905 359.34 98.9953C358.47 100.499 357.609 100.927 356.519 101.467C355.681 101.881 354.698 102.377 353.741 103.378C351.492 100.347 351.486 95.335 354.041 90.9095ZM368.989 99.5401C367.419 102.26 365.135 104.336 362.56 105.382C360.181 106.351 357.84 106.305 355.933 105.28C356.504 104.718 357.105 104.415 357.804 104.068C359.025 103.463 360.545 102.713 361.854 100.447C363.163 98.1815 363.053 96.4887 362.965 95.129C362.887 93.9165 362.825 92.9564 363.695 91.4517C364.563 89.9461 365.424 89.5216 366.514 88.983C366.851 88.8164 367.212 88.6337 367.584 88.4167C367.657 89.5756 367.833 90.7576 368.15 91.9441C368.62 93.6967 369.338 95.2955 370.224 96.7158C369.904 97.6932 369.506 98.6458 368.989 99.5401ZM370.955 91.1927C369.317 85.081 371.671 79.115 376.202 77.7761C376.215 78.6281 375.997 79.292 375.738 80.0599C375.301 81.3497 374.758 82.9524 375.435 85.4794C376.112 88.0071 377.384 89.1257 378.409 90.0268C379.322 90.8291 380.044 91.4634 380.494 93.1435C380.944 94.8215 380.636 95.7324 380.246 96.8841C379.938 97.7936 379.587 98.8658 379.637 100.299C375.872 99.7453 372.289 96.1727 370.955 91.1927ZM382.531 100.101C382.517 99.2481 382.736 98.5826 382.996 97.8157C383.433 96.5246 383.976 94.9198 383.298 92.3921C382.621 89.8638 381.349 88.7458 380.325 87.8447C379.411 87.0426 378.689 86.4074 378.239 84.728C377.79 83.0507 378.097 82.142 378.488 80.9902C378.796 80.0822 379.148 79.0098 379.097 77.5778C382.863 78.1317 386.446 81.7043 387.78 86.6843C389.418 92.796 387.064 98.7622 382.531 100.101Z" fill="#F2F3F4"/>
<path d="M398.324 30.6878L390.374 29.061L384.302 34.4448L378.81 13.9483C378.396 12.4017 379.317 10.8071 380.863 10.3926L389.276 8.13845C390.822 7.72405 392.417 8.64472 392.832 10.1913L398.324 30.6878Z" fill="#A3825D"/>
</g>
</g>
</g>
<defs>
<filter id="filter0_d" x="12.516" y="21.48" width="308.48" height="36.92" filterUnits="userSpaceOnUse" color-interpolation-filters="sRGB">
<feFlood flood-opacity="0" result="BackgroundImageFix"/>
<feColorMatrix in="SourceAlpha" type="matrix" values="0 0 0 0 0 0 0 0 0 0 0 0 0 0 0 0 0 0 127 0"/>
<feOffset dy="4"/>
<feGaussianBlur stdDeviation="2"/>
<feColorMatrix type="matrix" values="0 0 0 0 0 0 0 0 0 0 0 0 0 0 0 0 0 0 0.25 0"/>
<feBlend mode="normal" in2="BackgroundImageFix" result="effect1_dropShadow"/>
<feBlend mode="normal" in="SourceGraphic" in2="effect1_dropShadow" result="shape"/>
</filter>
<clipPath id="clip0">
<path d="M0 0H420V110H0V0Z" fill="white"/>
</clipPath>
<clipPath id="clip1">
<rect x="331.144" width="110.096" height="110.227" fill="white"/>
</clipPath>
</defs>
</svg>
